<svg viewBox="0 0 66 46" fill="none" xmlns="http://www.w3.org/2000/svg">
<path d="M3.5 20C1.84315 20 0.5 21.3431 0.5 23C0.5 24.6569 1.84315 26 3.5 26V20ZM64.6213 25.1213C65.7929 23.9497 65.7929 22.0503 64.6213 20.8787L45.5294 1.7868C44.3579 0.615223 42.4584 0.615223 41.2868 1.7868C40.1152 2.95837 40.1152 4.85786 41.2868 6.02944L58.2574 23L41.2868 39.9706C40.1152 41.1421 40.1152 43.0416 41.2868 44.2132C42.4584 45.3848 44.3579 45.3848 45.5294 44.2132L64.6213 25.1213ZM3.5 26H62.5V20H3.5V26Z" fill="white"/>
</svg>
