<svg width="31" height="43" viewBox="0 0 31 43" fill="none" xmlns="http://www.w3.org/2000/svg">
<path d="M12.9233 42.1254C12.6046 42.1254 12.2802 42.0672 11.9614 41.9454C10.8552 41.5216 10.1408 40.4472 10.1408 39.2097V25.7285C10.1408 25.4697 9.94018 25.2579 9.69455 25.2579H3.27268C2.18518 25.2579 1.2233 24.6129 0.762053 23.5741C0.302678 22.5372 0.452678 21.3466 1.15205 20.471L15.9702 1.91599C16.7258 0.967238 17.9258 0.631613 19.0358 1.05349C20.1421 1.47724 20.8564 2.55161 20.8564 3.78911V17.2704C20.8564 17.5291 21.0571 17.741 21.3027 17.741H27.7264C28.8139 17.741 29.7758 18.386 30.2371 19.4247C30.6964 20.4616 30.5464 21.6522 29.8471 22.5279L15.0289 41.0829C14.4889 41.7597 13.7202 42.1254 12.9233 42.1254ZM18.1789 3.79099L3.20518 22.286L3.27268 22.4397H9.69643C11.4196 22.4397 12.8221 23.9154 12.8221 25.7285V39.2097L27.7958 20.7147L21.3046 20.561C19.5814 20.561 18.1789 19.0854 18.1789 17.2722V3.79099Z" fill="white"/>
</svg>
