<svg width="41" height="68" viewBox="0 0 41 68" fill="none" xmlns="http://www.w3.org/2000/svg">
<g clip-path="url(#clip0_710_17670)">
<path d="M39.9729 33.1767C30.7248 28.7169 23.59 16.5603 21.408 1.26191C21.3822 1.08905 21.1416 1.08905 21.1202 1.26191C18.8049 17.4592 10.9485 30.1344 0.905804 33.8812C0.68244 33.9633 0.68244 34.2874 0.905804 34.3695C10.9485 38.1206 18.8092 50.7915 21.1202 66.9888C21.1459 67.1616 21.3865 67.1616 21.408 66.9888C23.5943 51.6861 30.7248 39.5338 39.9729 35.0739C40.7675 34.6893 40.7675 33.5614 39.9729 33.1767Z" fill="white"/>
<path d="M36.3486 31.4524C35.8804 31.0808 35.4509 30.7393 35.0471 30.4152C34.8409 30.2597 34.6519 30.0954 34.4715 29.9226C34.2868 29.7584 34.1021 29.5941 33.9217 29.4342C33.8057 29.3348 33.6039 29.3003 33.4664 29.1663C33.1786 28.9113 32.8994 28.6434 32.6331 28.3625C32.3625 28.0859 32.109 27.8007 31.9029 27.4895C31.4604 26.8024 31.0008 26.1498 30.4381 25.614C29.9227 25.0911 29.549 24.4774 29.1022 23.9069C28.9519 23.7168 28.7973 23.5353 28.7672 23.2371C28.7457 23.021 28.5696 22.7228 28.2904 22.5889C28.2389 22.5629 28.2088 22.4506 28.1787 22.3771C28.1486 22.295 28.1529 22.174 28.1014 22.1308C27.4957 21.6684 27.3239 20.9164 26.9244 20.3157C26.8257 20.1645 26.7956 19.9613 26.5765 19.9052C26.5207 19.8922 26.4305 19.7409 26.4391 19.6761C26.4648 19.5076 26.4133 19.3736 26.3403 19.2224L25.3824 17.2215C25.0345 16.9838 24.9743 16.5603 24.824 16.2016C24.7123 15.9336 24.6693 15.6354 24.6006 15.3502C24.5319 15.0607 24.2699 14.8273 24.3601 14.4945C24.373 14.4427 24.2827 14.3563 24.2527 14.2828C24.1152 13.9457 23.9176 13.6086 23.8704 13.2586C23.8446 13.0814 23.8188 12.8999 23.7587 12.7357C23.5568 12.2041 23.4022 11.651 23.2347 11.1064C23.0714 10.5619 22.8953 10.0174 22.7407 9.46855L22.3111 7.81339L22.0964 6.98365L21.916 6.14958C21.873 5.95511 21.8601 5.76496 21.6926 5.58346C21.5637 5.44085 21.4821 5.0908 21.5466 4.91361C21.6496 4.63271 21.538 4.41231 21.495 4.1703C21.4392 3.72086 21.3404 3.28006 21.2845 2.83494C21.2502 2.57132 21.0955 2.29042 21.2716 2.0268C21.2888 2.00087 21.2716 1.91876 21.2502 1.89283C21.1213 1.76319 21.0912 1.62057 21.0869 1.47364V1.36128V1.33535V1.32238V1.31374C21.1514 1.29645 20.9409 1.32671 21.233 1.28781C21.233 1.28781 21.2631 1.27917 21.2716 1.27485C21.2673 1.30942 21.2845 1.25756 21.2716 1.27485C21.2716 1.27053 21.2631 1.2662 21.2716 1.27053C21.2716 1.27053 21.2845 1.27485 21.2888 1.27917C21.2931 1.27917 21.3017 1.27917 21.306 1.28349L21.3919 1.29645V1.30942C21.3833 1.36128 21.3747 1.41746 21.3704 1.47364C21.3618 1.586 21.3704 1.69836 21.4048 1.82369C21.4649 2.0657 21.422 2.44599 21.2802 2.64047C21.0912 2.89544 21.0955 3.15905 21.0483 3.42267C20.928 4.19623 20.7519 4.95683 20.5887 5.72175C20.4211 6.48667 20.2751 7.25591 20.0689 8.00786C19.8842 8.72524 19.8885 9.48584 19.6136 10.1859C19.5406 10.3502 19.5621 10.5619 19.3688 10.67C19.3301 10.6916 19.3043 10.8342 19.3215 10.899C19.3902 11.1324 19.2786 11.3139 19.2012 11.5299C19.0251 12.0226 18.8533 12.5196 18.6643 13.0079C18.4753 13.4963 18.3035 13.9889 18.1832 14.4902C18.0844 14.8792 17.9727 15.2638 17.8181 15.6268C17.6635 15.9898 17.5045 16.3528 17.3628 16.7202C17.2683 16.9665 17.0664 17.1696 16.9375 17.403C16.813 17.632 16.7228 17.8783 16.6111 18.116C16.5467 18.2586 16.435 18.3796 16.4779 18.5698C16.4994 18.6735 16.4135 18.8809 16.3276 18.9371C16.0312 19.1273 15.9453 19.4514 15.7992 19.7323C15.6017 20.1385 15.374 20.5318 15.1463 20.9207L14.4634 22.0919C14.3517 22.282 14.3044 22.5456 14.0295 22.6105C13.9909 22.6191 13.9737 22.7574 13.9436 22.8352C13.9136 22.9173 13.8964 23.0383 13.8405 23.0772C13.3122 23.4272 13.0931 24.0193 12.7495 24.5076C12.3028 25.0781 11.8646 25.6529 11.4265 26.2319C10.9669 26.7894 10.4772 27.3253 9.98752 27.8612C9.7255 28.168 9.56227 28.5094 9.27877 28.786C8.99957 29.0453 8.73754 29.3262 8.45404 29.5812C8.26075 29.767 8.08893 30.009 7.77107 30.0263C7.68516 30.0263 7.53482 30.1559 7.50475 30.2467C7.39307 30.5838 7.07521 30.7221 6.85184 30.9468C6.58123 31.2363 6.17316 31.3487 5.97557 31.7333C5.91973 31.837 5.69637 31.863 5.56321 31.9451C5.33126 32.0877 5.0993 32.2389 4.88024 32.3988C4.77714 32.4809 4.69553 32.5933 4.58815 32.6668L3.45844 33.3712L3.18783 33.5397C3.18783 33.5397 3.10192 33.5959 3.05897 33.6175L2.77547 33.7645L2.61224 33.8466L2.28579 33.9978C2.22995 34.0151 2.17411 34.0626 2.1784 34.1275C2.1784 34.1923 2.22995 34.2441 2.28579 34.2614L2.96017 34.5596L3.13199 34.6331C3.15776 34.6417 3.19213 34.6633 3.2136 34.672L3.34247 34.7455L4.02544 35.1257C4.47646 35.3807 4.94467 35.6184 5.35273 35.9425C5.6663 36.1716 6.10444 36.2883 6.24619 36.7074C6.43948 36.7463 6.58982 36.8241 6.7015 36.9451C6.80889 37.0705 6.8905 37.2217 6.95493 37.3903C6.97212 37.4378 7.10527 37.4508 7.18259 37.4897C7.42314 37.602 7.78825 37.5588 7.82691 37.965C7.82691 37.978 7.86557 37.9953 7.87845 38.0126C8.03309 38.1984 8.36384 38.0774 8.47123 38.4188C8.53566 38.6305 8.78479 38.8121 8.96091 38.9979C9.14132 39.188 9.32602 39.3825 9.5279 39.5467C9.73409 39.7239 9.86295 40.0048 10.1808 40.0567C10.2324 40.0653 10.2538 40.316 10.3397 40.3981C10.7779 40.8173 11.0399 41.405 11.6241 41.6902C11.7529 41.7594 11.8775 41.9366 11.9248 42.0835C12.0966 42.6107 12.466 42.9392 12.844 43.3238C13.3423 43.8294 13.7675 44.4604 13.9264 45.1734C13.9608 45.3247 13.9565 45.4025 14.1197 45.4759C14.2228 45.5235 14.3087 45.6704 14.3818 45.7871L15.5329 47.7707C15.898 48.4405 16.2245 49.132 16.5767 49.8105C16.6712 49.9963 16.7142 50.1951 16.7657 50.3982C16.8087 50.6013 16.8602 50.8001 16.9805 50.9773C17.0793 51.1242 17.0664 51.3576 17.2812 51.4181C17.3112 51.4267 17.3542 51.4872 17.3542 51.5261C17.3714 52.075 17.8439 52.425 17.9599 52.9263C17.9813 53.0344 17.9813 53.1467 18.0028 53.2548C18.02 53.3671 18.02 53.5054 18.0801 53.5832C18.5784 54.2271 18.7116 55.0396 19.0122 55.7656C19.1153 56.0162 19.0982 56.3317 19.3688 56.4916C19.4117 56.5176 19.4418 56.6299 19.4332 56.6904C19.3301 57.209 19.6694 57.6282 19.7511 58.1036C19.7854 58.3499 19.9873 58.5789 19.8413 58.8469C19.8241 58.8815 19.867 58.9722 19.8971 59.0241C19.9486 59.1191 20.0431 59.2012 20.0646 59.3006C20.1291 59.5772 20.0947 59.9057 20.2236 60.1304C20.3868 60.407 20.4254 60.6965 20.5071 60.9817C20.5457 61.146 20.4899 61.3361 20.5071 61.509C20.5199 61.6732 20.5715 61.8331 20.6059 61.9973C20.6574 62.2307 20.7433 62.464 20.7433 62.6931C20.7433 62.9308 20.9967 63.0691 20.9065 63.35C20.8335 63.566 21.0826 63.7475 21.1471 63.9593C21.1771 64.0673 21.1728 64.1883 21.1686 64.3007C21.1686 64.3871 21.1084 64.4779 21.1299 64.5557C21.1728 64.7285 21.16 64.9057 21.2845 65.0786C21.3704 65.1953 21.2931 65.4459 21.306 65.6361C21.3232 65.8262 21.3661 66.012 21.3962 66.1979C21.4263 66.3837 21.4177 66.5955 21.495 66.7554L21.5551 66.8893L21.568 66.9239V66.9325L21.3017 66.9714H21.2845C21.2673 66.9758 21.2588 66.9844 21.2588 66.9844C21.2588 66.9844 21.2673 66.9628 21.2673 66.9714C21.2673 66.9801 21.2845 66.993 21.2631 66.9801C21.2631 66.9801 21.2502 66.9758 21.2373 66.9714H21.2287L20.9022 66.9239V66.9023L20.9108 66.8288L20.928 66.6862L20.971 66.401C21.0354 66.0207 21.1256 65.6447 21.1728 65.2644C21.1986 65.0699 21.16 64.8323 21.3704 64.694C21.4091 64.668 21.4306 64.56 21.4177 64.4995C21.2759 63.7346 21.6625 63.0345 21.7356 62.2955C21.7957 61.7683 21.7957 61.2367 21.9589 60.7181C22.1136 60.2168 22.294 59.7069 22.3369 59.1926C22.3627 58.7691 22.4099 58.3542 22.5818 57.9782C22.745 57.6109 22.5001 57.1312 22.9168 56.8503C23.0414 56.4614 23.1359 56.0638 23.2905 55.6878C23.4194 55.368 23.458 55.0136 23.7458 54.763C23.8489 54.6722 23.9262 54.4475 23.9133 54.3049C23.879 53.8382 24.0594 53.4622 24.3214 53.0992C24.3815 53.0128 24.3472 52.8615 24.3901 52.7491C24.519 52.4121 24.6436 52.075 24.8068 51.7552C24.9271 51.5175 25.0302 51.2712 25.1247 51.0248C25.232 50.7828 25.3265 50.5365 25.421 50.2858C25.61 49.7889 25.7904 49.2876 26.0181 48.8079C26.0997 48.6264 26.0825 48.3757 26.1942 48.2374C26.9116 47.4206 27.1994 46.3402 27.8952 45.5321C28.1444 45.2296 28.372 44.9184 28.5911 44.5986C28.8187 44.2875 29.0507 43.9763 29.2698 43.6565L29.927 42.7015C30.1546 42.3903 30.4081 42.0965 30.6572 41.7983C30.7903 41.647 31.0438 41.5822 31.0653 41.4785C31.1469 41.163 31.439 40.9642 31.5335 40.7179C31.6967 40.2641 32.0919 40.0221 32.3582 39.6677C32.5558 39.4128 32.865 39.2356 32.9381 38.8855C32.9467 38.8337 33.0326 38.7602 33.0927 38.7386C33.5781 38.5614 33.7198 38.0212 34.1279 37.7706C34.3684 37.3643 34.7379 37.0877 35.0944 36.7982C35.4638 36.5259 35.8203 36.2364 36.194 35.9685C36.3014 35.8863 36.3787 35.7697 36.4775 35.6703C36.5248 35.6184 36.5763 35.5493 36.6321 35.532C37.0531 35.411 37.4053 35.1819 37.7618 34.9529C38.1313 34.7411 38.4921 34.5078 38.8787 34.3392C39.0075 34.283 39.1407 34.2398 39.2695 34.1966C39.3941 34.1577 39.5788 34.0842 39.5445 34.1188L39.5573 34.1318C39.553 34.1318 39.5788 34.1491 39.6604 34.1534C39.7077 34.1534 39.6948 34.1188 39.669 34.1059C39.6089 34.0713 39.669 34.0626 39.7292 33.9157C39.7893 33.7817 39.8151 33.5441 39.9268 33.2891C40.0041 33.1119 40.1329 33.1465 40.2919 33.1897C40.6097 33.2545 40.9147 33.5527 40.9405 33.9805C40.9577 34.3219 40.8202 34.6201 40.803 34.9788C40.803 35.0436 40.6913 35.1733 40.6097 35.2122C40.4723 35.29 40.3348 35.3548 40.1974 35.4153C40.0728 35.4672 39.9955 35.506 39.8967 35.5579C39.7077 35.6573 39.5273 35.761 39.3297 35.8042C39.0247 35.8647 38.7971 36.0203 38.5264 36.124C38.2945 36.2061 38.1527 36.4438 37.8606 36.4265C37.7618 36.4265 37.6459 36.6815 37.5084 36.7766C37.1948 37.0186 36.8512 37.2174 36.5334 37.4551C36.0394 37.7965 35.6012 38.2027 35.176 38.6176C34.7722 39.0627 34.377 39.5035 33.9131 39.8838C33.6855 40.2598 33.4106 40.5969 33.1056 40.8994C32.8092 41.2149 32.4785 41.5001 32.2551 41.8717C31.7225 42.7663 31.0008 43.4923 30.4811 44.3826C30.3694 44.5597 30.2663 44.6937 30.1074 44.8104C30.0043 44.8882 29.8926 44.966 29.8196 45.0697C29.5318 45.463 29.3084 45.9038 29.0249 46.3013C28.8789 46.5174 28.8273 46.8286 28.5095 46.9064C28.4665 46.9193 28.4064 47.0187 28.4021 47.0792C28.3849 47.5676 28.0499 47.909 27.8566 48.3152C27.7835 48.4708 27.6976 48.6091 27.5344 48.7344C27.3626 48.8684 27.2079 49.1493 27.1908 49.3783C27.1779 49.5512 27.1177 49.6808 27.0705 49.8234C26.8686 50.4241 26.3703 50.9211 26.3617 51.591C26.0138 51.7897 25.9322 52.196 25.8592 52.5244C25.726 53.1554 25.4726 53.7301 25.2578 54.3265C25.0345 54.9186 24.7939 55.5063 24.6006 56.107C24.5018 56.3965 24.3214 56.6602 24.2097 56.9497C24.0938 57.2565 24.0035 57.572 23.9176 57.8875C23.8704 58.056 23.7329 58.2289 23.8661 58.4061C23.8747 58.419 23.8747 58.4536 23.8661 58.4666C23.7845 58.6351 23.6599 58.795 23.6255 58.9765C23.5955 59.1407 23.6728 59.3179 23.6642 59.4865C23.6513 59.6896 23.6041 59.8884 23.5568 60.0872C23.5096 60.2773 23.4967 60.4934 23.3034 60.6058C23.4537 60.8046 23.3034 60.999 23.269 61.1935C23.239 61.375 23.1745 61.5522 23.1402 61.738L23.0113 62.356C22.9683 62.5634 22.9082 62.7665 22.8867 62.974C22.8524 63.2592 22.8653 63.5488 22.8266 63.8297C22.7836 64.1278 22.7235 64.426 22.6591 64.7199C22.5732 65.0872 22.4529 65.4502 22.3584 65.8176C22.3197 65.9688 22.3455 66.1115 22.3885 66.2713C22.4443 66.4831 22.6032 66.7683 22.2983 66.9887C22.2811 67.0017 22.2725 67.019 22.2596 67.0449C22.2553 67.0579 22.251 67.0708 22.2467 67.0881L22.2295 67.1659C22.2166 67.2134 22.2081 67.2567 22.1866 67.3085C22.1178 67.5116 21.946 67.732 21.7441 67.8444C21.5423 67.9611 21.3361 67.9957 21.1643 67.987C20.8335 67.987 20.434 67.745 20.2794 67.395C20.2364 67.3085 20.215 67.2307 20.1935 67.1486C20.1806 67.0924 20.1849 67.1097 20.1806 67.0968L20.172 67.0795L20.1419 67.006C20.1033 66.9066 20.0732 66.8115 20.0474 66.7121C19.9959 66.5134 19.9615 66.3102 19.9358 66.1071C19.8799 65.7009 19.8499 65.286 19.7468 64.8928C19.8799 64.4131 19.678 64.0025 19.5191 63.5617C19.2957 62.9092 19.111 62.2091 19.0853 61.5263C19.0466 60.8046 18.7846 60.152 18.6557 59.4605C18.6171 59.2661 18.4925 59.0802 18.6257 58.8685C18.6557 58.8209 18.6085 58.6783 18.5569 58.6049C18.2133 58.1122 18.0887 57.5763 18.0329 56.98C18.0028 56.6688 17.8224 56.362 17.6549 56.0595C17.3972 55.61 17.264 55.0741 17.0793 54.5728C17.2082 54.2747 16.9332 54.1882 16.8001 54.1148C16.624 54.0154 16.551 53.8857 16.4822 53.7128C16.4006 53.4881 16.3405 53.2548 16.1085 53.0949C15.9925 53.0128 15.898 52.7578 15.9195 52.6065C15.9453 52.4034 15.8766 52.3645 15.7477 52.2435C15.5974 52.1052 15.709 51.8373 15.606 51.6255C15.49 51.3965 15.2795 51.1718 15.3912 50.8693C15.3998 50.8433 15.3654 50.7742 15.331 50.7482C14.9015 50.4328 15.0046 49.8623 14.6996 49.4907C14.5965 49.1493 14.4805 48.8079 14.3259 48.4924C14.1627 48.1769 13.9866 47.8744 13.8062 47.5676C13.4368 46.9625 13.0716 46.3618 12.7022 45.7611C12.4101 45.2598 12.2426 44.6591 11.8174 44.2572C11.3621 43.8467 10.9884 43.38 10.6275 42.9003C10.2753 42.4162 9.87154 41.9711 9.47206 41.5303C9.29595 41.3445 9.02963 41.2019 9.04681 40.8691C9.04681 40.8216 8.96091 40.7438 8.90507 40.7265C8.48411 40.6098 8.26934 40.3116 8.09323 39.94C8.05027 39.8492 7.9257 39.7326 7.84409 39.7326C7.62502 39.7369 7.53482 39.564 7.41884 39.443C7.2728 39.3047 7.14823 39.0325 7.00648 39.0108C6.69721 38.9763 6.7058 38.7386 6.57264 38.5873C6.49103 38.4966 6.35787 38.4404 6.24619 38.3799C6.19035 38.3496 6.09155 38.3583 6.07437 38.3237C5.89396 37.9002 5.39139 37.9175 5.11649 37.6279C5.05635 37.5674 4.97903 37.5199 4.92749 37.4551C4.61821 37.0834 4.45499 36.8933 4.24881 36.7291C4.02974 36.5821 3.75053 36.4698 3.20501 36.2364C3.13199 36.0333 2.96017 35.9771 2.78406 35.9252L2.6509 35.8863L2.58647 35.8647C2.5607 35.8561 2.50056 35.8215 2.47049 35.8086C2.32445 35.7524 2.23854 35.6789 2.1784 35.5795C2.0882 35.4369 1.81329 35.3029 1.59422 35.2338C1.10884 35.0739 0.683589 34.8146 0.288408 34.5726L0.142363 34.4775L0.0693405 34.43C0.0693405 34.43 0.0478633 34.404 0.0392724 34.3824C0.000613442 34.309 -0.0251592 34.1836 -0.0122729 34.067C-0.003682 33.9503 0.0392724 33.8422 0.0822269 33.7947C0.155249 33.7342 0.228272 33.6694 0.296999 33.6046C0.40868 33.4879 0.722248 33.4749 0.713657 33.2934C0.709361 33.2199 1.08736 33.1249 1.2377 33.0298C1.24629 33.0298 1.25488 33.0211 1.26347 33.0211C1.59852 32.8656 2.00229 32.8007 2.21277 32.5112C2.26431 32.4464 2.35881 32.4075 2.51345 32.3254C2.62942 32.2649 2.68526 32.2476 2.75829 32.1957C2.9344 32.0747 3.15347 32.0315 3.26515 31.7938C3.32529 31.6642 3.56154 31.5302 3.71188 31.5302C3.87081 31.5302 4.00826 31.4956 4.13283 31.4438C4.2531 31.3876 4.35619 31.3012 4.45069 31.2104C4.63969 31.0246 4.79862 30.8042 4.97903 30.614C5.08642 30.5017 5.15944 30.4152 5.31837 30.3634C5.54173 30.2899 5.84241 30.1905 5.91973 29.996C6.06148 29.6719 6.3278 29.5336 6.55546 29.3348C6.94634 28.9934 7.37159 28.6909 7.71952 28.2933C8.12329 27.8525 8.62157 27.5111 8.91795 26.9623C9.07259 26.6641 9.29595 26.2968 9.7169 26.1931C9.76415 26.1801 9.75556 25.9856 9.8157 25.9121L10.1808 25.4886C10.3011 25.3417 10.4085 25.1904 10.5244 25.0392C10.7521 24.741 10.9841 24.4428 11.2203 24.1489C11.3277 24.015 11.6413 24.0063 11.5811 23.7643C11.521 23.5094 11.9462 23.5915 11.8217 23.3278C11.8045 23.289 11.8947 23.1593 11.9591 23.1074C12.6636 22.5154 13.0244 21.6554 13.5098 20.8991C13.6301 20.7219 13.6687 20.4583 13.935 20.4151C13.9694 20.1212 14.1713 19.9008 14.3517 19.6718C14.5278 19.4384 14.6738 19.1878 14.6309 18.8637C14.8628 18.5395 14.8757 18.0728 15.2709 17.8481C15.3353 17.8092 15.3439 17.6623 15.4041 17.6147C15.6274 17.4548 15.3482 17.1566 15.6403 16.9708C15.8121 16.8628 15.8766 16.5473 15.9797 16.3183L16.2589 15.683L16.5638 14.9829C16.6626 14.7495 16.7614 14.5118 16.8345 14.2655C16.9805 13.7685 17.0149 13.2456 17.2554 12.7746C17.2812 12.7227 17.2898 12.6233 17.2554 12.5887C17.0149 12.3165 17.2726 12.1306 17.41 11.9924C17.5303 11.8757 17.6033 11.7676 17.6506 11.6121C17.7794 11.1929 17.904 10.765 18.0544 10.3545C18.1446 10.1081 18.1317 9.81428 18.398 9.6371C18.4796 9.58091 18.5183 9.37348 18.5054 9.24383C18.4409 8.65178 18.7116 8.13319 18.8232 7.58003C18.8748 7.32937 18.9521 7.08737 19.0165 6.84104C19.0638 6.65089 18.965 6.43049 19.1368 6.27059C19.1067 5.77793 19.1841 5.3112 19.2914 4.84447C19.3988 4.37774 19.5363 3.91533 19.5921 3.43996C19.6566 2.9689 19.7296 2.49785 19.8112 2.03112L19.9358 1.32671L19.9658 1.14952L20.0045 0.95505C20.056 0.73465 20.1935 0.471034 20.4083 0.289528C20.8464 -0.0734846 21.3919 -0.112379 21.8601 0.142594C22.0964 0.272241 22.2983 0.501285 22.4013 0.738972C22.4572 0.864297 22.4787 0.968015 22.5001 1.08038L22.5087 1.12359C22.5431 1.35696 22.6891 1.60329 22.5087 1.84962C22.4744 1.89715 22.5087 2.0657 22.556 2.10891C22.6934 2.22992 22.7708 2.32067 22.6419 2.49785C22.6161 2.53243 22.672 2.65343 22.7149 2.71825C22.8309 2.89544 22.8481 3.0683 22.8051 3.28438C22.7708 3.4486 22.7665 3.669 22.8395 3.81161C23.0371 4.19623 23.2261 4.55492 23.0886 5.00437C23.0714 5.06055 23.2433 5.16859 23.2561 5.25934C23.3034 5.61371 23.4924 5.94215 23.3936 6.32677C23.3506 6.48667 23.4537 6.68114 23.4795 6.86264C23.5225 7.1738 23.7115 7.42877 23.7286 7.76153C23.7458 8.09861 23.8876 8.4357 23.9735 8.77278C24.0551 9.10986 24.1539 9.44263 24.2613 9.77539L24.5662 10.7737L24.8755 11.772L25.2277 12.753L25.58 13.7339C25.6616 13.963 25.7088 14.1877 25.7303 14.4427C25.769 15.0996 26.0868 15.7997 26.6066 16.5819C26.6452 16.638 26.6667 16.7072 26.6968 16.7677L27.2939 17.9864C27.4872 18.3926 27.6804 18.8032 27.8737 19.2051C28.0413 19.5638 28.1444 19.957 28.3505 20.3027C28.488 20.5275 28.5739 20.7781 28.8316 20.9294C29.0464 21.0547 29.0378 21.4177 29.3471 21.5258C29.4588 21.5646 29.5876 21.7764 29.6005 21.9147C29.6563 22.3685 29.9484 22.6926 30.189 23.0383C30.451 23.4445 30.7345 23.8335 31.0266 24.2181C31.1683 24.4082 31.25 24.6459 31.5378 24.728C31.6752 24.7713 31.8127 25.0262 31.8642 25.2034C31.9501 25.48 32.1348 25.6745 32.3281 25.843C32.7405 26.2017 32.7491 26.1844 33.024 26.6555C33.0583 26.7116 33.1013 26.7635 33.1485 26.811C33.6039 27.2907 33.9904 27.8698 34.5446 28.2155C34.9999 28.5094 35.3736 28.8767 35.7774 29.2095C35.9406 29.3392 36.194 29.4126 36.1983 29.6892C36.1983 29.7281 36.2928 29.8016 36.3529 29.8102C36.8469 29.888 37.1218 30.3115 37.5127 30.5449C37.8821 30.7869 38.3203 30.8474 38.6682 31.1369C38.9946 31.4092 39.4027 31.5561 39.7678 31.7636C40.3305 32.0704 40.395 32.2519 40.1415 32.7835C39.931 33.2243 39.7335 33.2372 39.2051 33.0644C38.0496 32.7316 37.1605 31.9062 36.3358 31.4308L36.3486 31.4524Z" fill="white"/>
</g>
<defs>
<clipPath id="clip0_710_17670">
<rect width="41" height="68" fill="white"/>
</clipPath>
</defs>
</svg>
