<svg width="768" height="768" viewBox="0 0 768 768" fill="none" xmlns="http://www.w3.org/2000/svg">
<g clip-path="url(#clip0_4349_162)">
<g clip-path="url(#clip1_4349_162)">
<path d="M786.538 -13.3592C777.887 -11.302 770.796 -9.70015 763.779 -7.84624C762.689 -7.56165 761.608 -6.65095 760.218 -6.32571C754.696 -5.05724 749.159 -3.12202 743.679 -2.5691C737.694 -1.95927 731.864 -0.666406 726.441 1.15498C721.293 2.87879 716.09 3.96837 710.918 5.3588C709.178 5.82228 707.495 6.36707 705.43 6.115C703.917 5.92798 701.364 6.48091 699.697 7.83881C699.372 8.09901 698.542 8.10714 697.949 8.15593C697.306 8.21285 696.485 8.00144 696.054 8.22911C691.273 10.8392 685.703 11.0506 680.597 12.6199C679.328 13.0102 677.816 12.9371 676.938 14.1323C676.71 14.4413 675.458 14.7747 675.035 14.6446C673.905 14.3112 672.864 14.4332 671.636 14.7341C666.302 16.0432 660.96 17.2954 655.618 18.5638C653.292 20.3852 650.211 20.556 647.414 21.2146C645.316 21.7106 643.12 21.7919 640.966 22.0602C638.795 22.3286 636.697 23.6377 634.42 23.0604C634.062 22.9709 633.322 23.4832 632.729 23.6377C630.094 24.3532 627.419 25.4022 624.825 25.5973C623.5 25.703 622.166 25.8087 620.89 26.1096C604.343 30.0207 587.804 33.9562 571.265 37.9323C569.826 38.2738 568.419 38.469 567.061 39.526C565.996 40.3554 563.402 40.9978 562.117 40.7294C560.06 40.2904 558.402 41.0628 556.613 41.4369C553.32 42.1199 550.075 43.0468 546.782 43.7217C544.822 44.1283 542.814 45.2504 540.822 44.4454C540.627 44.3641 540.017 44.5186 539.83 44.6812C537.952 46.3562 535.626 45.8846 533.431 46.2424C531.837 46.5026 530.268 46.8929 528.698 47.8768C527.17 48.8281 524.405 49.5843 522.73 49.3485C520.478 49.0395 518.648 49.7551 516.721 50.2023C505.337 52.8449 493.954 55.5282 482.603 58.3172C477.236 59.6344 472.178 61.96 466.649 62.83C465.332 63.0333 464.031 63.8301 462.665 63.261C462.388 63.1471 461.372 63.4968 461.014 63.7976C459.713 64.9035 458.168 64.9685 456.485 65.3263C448.874 66.9606 441.069 68.3511 433.807 70.8311C428.148 72.7663 422.416 73.8722 416.74 75.4089C414.845 75.9212 412.78 75.8155 410.812 76.157C408.902 76.4904 407.007 76.9945 405.129 77.4987C404.007 77.7995 402.819 77.8239 401.876 78.7671C401.364 79.2713 399.77 79.7591 399.047 79.6209C396.599 79.1493 394.33 80.1006 392.038 80.6292C385.476 82.1334 378.946 83.7597 372.384 85.2639C370.774 85.6298 369.099 86.5568 367.408 85.8575C367.18 85.7599 366.335 86.3129 365.766 86.5568C365.164 86.8089 364.457 87.2967 363.961 87.2642C359.399 86.9308 355.122 88.7603 350.78 89.7442C340.242 92.1185 329.769 94.8181 319.223 97.1436C316.271 97.7941 313.905 99.2902 311.051 99.9163C308.286 100.526 305.546 101.282 302.773 101.852C300.806 102.258 298.862 103.226 296.789 102.6C296.22 102.429 294.813 102.779 294.301 103.193C292.374 104.754 289.861 104.787 287.609 105.486C284.86 106.348 281.819 106.364 279.339 108.121C278.673 108.592 277.095 108.356 275.949 108.576C273.965 108.958 271.981 109.389 270.037 109.918C269.102 110.17 268.273 110.78 267.338 111.032C260.133 113.032 252.945 115.073 245.701 116.919C238.326 118.797 230.886 120.472 223.478 122.236C216.071 124.001 208.679 125.855 201.239 127.481C198.45 128.091 195.629 129.636 192.718 128.815C190.36 130.286 187.994 130.303 185.522 129.863C185.164 129.798 184.457 130.4 183.887 130.668C182.099 131.49 180.667 133.36 178.22 132.278C178.13 132.238 177.887 132.368 177.716 132.384C175.943 132.571 175.122 134.449 172.707 134.01C171.203 133.734 169.056 134.515 167.202 134.905C165.299 135.303 163.364 135.694 161.527 136.279C159.624 136.881 157.331 136.645 155.786 138.271C155.534 138.531 153.908 138.043 153.078 138.304C148.818 139.629 144.101 139.605 140.174 142.028C139.272 142.581 137.727 142.914 136.613 142.882C132.628 142.751 129.246 144.117 125.497 145.41C120.562 147.11 115.195 148.598 109.894 148.289C108.763 148.224 108.235 148.094 107.3 148.874C106.682 149.386 105.438 149.598 104.454 149.834C93.428 152.476 82.4021 155.095 71.3762 157.721C68.3758 158.436 65.3103 157.965 62.3262 159.128C61.0984 159.607 59.4721 159.38 58.6427 160.591C58.5289 160.762 58.0167 160.957 57.7565 160.949C53.7966 160.721 50.5034 163.169 46.7143 163.583C45.9093 163.673 45.1043 163.64 44.2912 163.705C43.4618 163.779 42.4698 163.722 41.8274 164.047C36.5096 166.755 30.4519 167.112 24.8251 168.812C22.9062 169.389 20.6294 169.275 19.174 170.861C18.9544 171.097 18.0925 171.292 17.6778 171.219C14.0107 170.609 10.6118 172.552 7.06662 173.016C5.24524 173.251 3.44011 174.496 1.57807 173.715C1.34227 173.617 0.651114 173.902 0.228292 174.089C-0.503514 174.414 -1.16212 174.975 -1.91019 175.13C-3.97551 175.561 -6.3661 175.455 -8.08178 176.26C-10.204 177.26 -12.3588 177.569 -14.4973 178.114C-15.7169 178.423 -17.0667 178.187 -18.3596 178.366C-19.5711 178.529 -20.7746 178.911 -21.978 179.204C-23.7018 179.61 -25.4419 180.244 -27.1413 180.374C-28.8976 180.513 -29.9628 182.041 -32.02 181.667C-33.5974 181.383 -34.9797 182.887 -36.5572 183.391C-37.3378 183.643 -38.2241 183.716 -39.0534 183.781C-39.6877 183.83 -40.3707 183.586 -40.9236 183.749C-42.1921 184.123 -43.4931 184.204 -44.7534 185.05C-45.6234 185.627 -47.4692 185.383 -48.8678 185.627C-50.2582 185.871 -51.6243 186.261 -53.0066 186.595C-54.3889 186.92 -55.9338 187.042 -57.1128 187.619C-62.3168 190.14 -68.1062 190.734 -73.611 192.213C-75.0258 192.596 -76.5789 193.401 -78.0587 192.669C-78.3189 192.539 -79.1402 192.718 -79.5305 192.929C-84.458 195.62 -90.2311 195.783 -95.4839 197.466C-99.2323 198.67 -102.859 200.109 -106.778 200.914C-110.592 201.686 -114.568 202.337 -118.089 203.703C-120.991 204.825 -123.862 205.906 -126.862 206.337C-129.797 206.76 -132.082 209.476 -135.31 208.419C-138.238 209.118 -141.157 209.874 -144.1 210.492C-146.58 211.013 -148.987 212.062 -151.63 211.623C-152.589 211.46 -154.28 211.891 -155.159 212.452C-157.98 214.257 -161.029 214.655 -164.266 214.859C-165.03 214.907 -165.843 215.639 -166.68 215.859C-169.25 216.534 -171.828 217.241 -174.43 217.705C-182.203 219.087 -189.456 222.071 -197.083 223.901C-198.49 224.242 -199.848 225.429 -201.14 225.511C-209.028 226.007 -216.46 229.21 -224.152 230.227C-235.495 231.731 -246.366 235.179 -257.481 237.561C-258.929 237.87 -260.644 237.366 -261.262 237.772C-263.189 239.057 -265.767 238.968 -267.401 239.976C-270.337 241.781 -273.654 241.822 -276.72 242.838C-278.956 243.578 -281.574 243.456 -283.395 245.147C-283.656 245.391 -284.453 245.554 -284.9 245.513C-288.526 245.196 -291.453 247.644 -294.909 247.92C-300.902 250.782 -307.618 251.392 -313.952 253.214C-314.879 253.482 -315.725 253.994 -316.619 254.376C-317.075 254.571 -317.587 254.88 -318.01 254.88C-324.149 254.84 -329.881 257.377 -335.85 258.393C-337.817 258.726 -339.818 258.783 -341.786 259.109C-343.778 259.434 -345.713 260.263 -347.762 259.816C-348.396 259.678 -349.502 260.084 -350.307 260.393C-354.673 262.06 -358.487 260.971 -359.268 257.978C-359.552 256.897 -358.633 256.604 -357.763 255.97C-356.064 254.742 -354.332 253.791 -352.031 253.327C-350.242 252.97 -348.217 252.848 -346.892 251.425C-346.672 251.189 -345.851 251.026 -345.388 251.059C-342.127 251.27 -338.883 249.709 -335.858 249.668C-333.532 249.636 -331.516 249.018 -329.361 248.717C-327.548 248.465 -325.84 247.473 -323.84 248.001C-323.165 248.18 -321.612 246.936 -320.384 246.603C-317.481 245.814 -314.554 245.058 -311.603 244.505C-302.634 242.822 -294.267 239.195 -285.323 237.48C-279.33 234.626 -272.467 234.292 -266.312 232.121C-258.872 229.503 -251.155 228.121 -243.642 225.958C-242.097 225.511 -240.837 225.242 -239.373 225.259C-238.422 225.267 -237.406 225.283 -236.462 225.071C-232.836 224.266 -229.234 223.283 -225.599 222.543C-223.648 222.144 -221.647 220.941 -219.631 221.803C-219.354 221.925 -218.484 221.697 -218.135 221.453C-215.264 219.428 -211.63 219.38 -208.361 218.436C-207.109 218.079 -205.881 217.835 -204.401 217.965C-202.799 218.103 -200.474 217.493 -199.018 216.664C-197.92 216.038 -196.888 215.778 -195.782 215.412C-191.212 213.875 -186.065 214.013 -181.878 211.387C-179.162 212.159 -176.292 211.013 -173.942 210.11C-164.908 206.654 -155.321 205.329 -146.044 202.865C-143.807 202.272 -141.393 202.304 -139.083 201.873C-136.652 201.418 -134.245 200.792 -131.847 200.158C-130.57 199.816 -128.968 199.905 -128.196 198.686C-128.139 198.596 -127.927 198.491 -127.781 198.474C-126.366 198.312 -124.886 198.344 -123.561 197.954C-122.366 197.604 -121.414 196.669 -120.227 196.206C-118.812 195.645 -117.284 195.263 -115.787 194.88C-114.34 194.515 -112.836 193.921 -111.453 194.515C-110.575 193.157 -108.77 193.303 -107.339 192.872C-105.989 192.465 -104.591 192.197 -103.208 191.872C-101.655 191.506 -100.11 191.132 -98.5574 190.766C-97.0044 190.4 -95.4188 190.116 -93.9145 189.636C-91.8411 188.985 -89.8571 188.099 -87.7755 187.481C-85.5801 186.831 -83.3196 186.294 -81.0591 185.879C-78.2295 185.351 -75.3754 185.025 -72.5377 184.554C-71.3586 184.359 -70.4398 183.855 -69.4071 183.204C-68.033 182.342 -66.3986 180.765 -64.1137 181.781C-63.6584 181.984 -62.3168 181.57 -61.6093 181.204C-55.9988 178.26 -49.5183 178.057 -43.5744 176.195C-39.9723 176.528 -36.9068 175.065 -33.5242 173.926C-28.5561 172.259 -23.2139 170.796 -18.075 170.275C-12.6352 169.723 -7.56137 168.088 -2.30049 167.112C-0.820618 166.836 0.65925 166.047 2.13913 166.755C2.48064 166.917 3.57021 166.592 4.13939 166.291C8.09928 164.226 12.2787 163.551 16.7509 163.209C19.1089 163.031 21.5645 161.99 23.9876 161.006C27.6141 159.526 31.8261 158.981 35.786 158.038C37.7944 158.876 38.827 157.29 39.5751 156.542C40.5752 155.542 41.6404 155.151 43.039 154.802C44.8278 154.355 46.6492 154.159 48.2348 152.924C49.0398 152.297 51.0888 151.915 52.1703 152.11C53.6176 152.379 54.0405 151.997 55.1463 151.322C56.4473 150.533 58.1955 151.338 59.96 150.858C61.8383 150.346 63.9117 149.191 65.9039 150.094C66.0828 150.175 66.6601 150.021 66.904 149.858C70.1077 147.687 74.0676 148.785 77.4339 147.362C88.2646 146.345 98.5913 142.573 109.227 140.589C113.618 139.767 118.228 139.686 122.367 138.076C131.059 134.702 140.28 133.425 149.216 131.051C151.111 130.546 153.16 129.449 155.176 130.303C155.453 130.425 156.323 130.197 156.672 129.953C159.25 128.115 162.104 127.823 165.153 127.92C165.893 127.945 167.186 127.611 167.536 127.205C168.519 126.058 169.991 126.074 171.268 125.79C172.813 125.448 175.041 125.725 175.854 125.066C177.602 123.659 178.952 124.448 180.48 124.261C181.424 124.147 182.391 123.659 183.318 123.293C183.757 123.123 184.237 122.602 184.522 122.627C187.798 122.976 190.409 120.724 193.507 120.448C194.173 120.391 194.848 120.204 195.507 120.179C200.445 120 205.833 118.962 211.672 117.065C214.477 118.024 216.811 115.073 219.754 115.61C220.827 115.805 222.665 115.268 223.803 114.666C228.796 112.048 234.512 111.812 239.773 110.145C240.871 109.796 241.968 110.625 243.196 109.446C243.66 109.007 245.709 109.479 246.92 109.153C248.685 108.682 250.677 108.796 252.197 107.373C252.824 106.787 254.482 106.738 255.637 106.372C257.222 105.868 258.93 105.876 260.361 104.657C261.142 103.99 263.199 103.486 264.313 103.64C268.891 104.291 272.387 101.892 276.136 100.38C277.266 99.9245 278.046 99.5748 279.331 99.5342C281.136 99.4773 283.543 99.3959 284.747 98.591C286.893 97.1599 289.235 96.981 291.512 96.3793C295.447 95.3385 299.456 94.5579 303.383 93.5008C307.863 92.2893 312.458 91.6469 316.84 89.728C319.19 88.7034 322.337 87.5163 325.321 88.24C325.655 88.3213 326.549 87.3049 327.273 87.126C332.948 85.7193 338.624 84.3289 344.332 83.0767C345.649 82.7921 347.405 83.7922 348.349 82.4262C349.357 80.9707 351.284 82.9059 352.024 81.2634C352.13 81.0276 353.333 80.7593 353.975 80.7511C360.993 80.6129 367.571 77.8483 374.393 76.6205C376.027 76.3278 377.743 75.3276 379.296 76.1895C383.085 73.9291 388.289 75.4821 391.802 72.4654C394.827 72.1077 397.721 70.27 400.884 70.9774C401.396 71.0913 402.323 70.5221 402.901 70.5953C404.852 70.8555 405.47 68.4893 407.91 69.0585C409.308 69.3837 411.569 68.4568 413.439 68.0502C415.171 67.6762 416.886 67.2371 418.61 66.8224C420.505 66.3671 422.399 65.9198 424.294 65.4645C426.188 65.0092 428.116 64.6433 429.978 64.0903C433.75 62.9764 437.288 61.2444 441.28 60.6508C441.711 60.5858 442.394 60.2606 442.5 60.0085C443.394 57.9025 445.581 58.4392 447.021 58.6424C448.232 58.8132 449.224 58.7969 450.428 58.5042C453.696 57.6992 456.957 56.8536 460.25 56.1868C462.201 55.7884 464.137 54.7232 466.243 55.4144C466.893 55.6258 468.438 55.1786 469.251 54.7151C473.065 52.5684 477.488 52.2513 481.619 51.0804C483.489 50.5519 485.4 50.1372 487.302 49.7225C488.75 49.4054 490.002 48.2915 491.612 48.6899C498.28 45.5756 505.679 44.8113 512.737 42.9574C519.754 41.1116 526.844 39.5179 533.927 37.8998C535.699 37.4932 537.537 36.4606 539.391 37.2737C539.749 37.4282 541.017 37.1111 541.334 36.7858C542.212 35.8914 542.912 35.371 544.269 35.9646C544.522 36.0703 545.449 35.6556 545.92 35.3629C547.254 34.5497 548.555 34.2895 550.165 34.3709C551.409 34.4359 553.035 34.2652 554.124 33.7366C557.035 32.3299 559.792 31.0696 563.166 31.59C563.581 31.655 564.435 30.6061 565.126 30.4842C567.809 30.0125 570.354 28.7197 573.216 29.0531C574.387 29.1913 575.908 28.5164 577.274 28.305C579.624 27.9472 581.665 26.7601 584.177 26.5568C586.722 26.3535 589.341 25.4184 591.926 24.8005C594.512 24.1825 597.098 23.5727 599.684 22.9547C602.269 22.3367 604.855 21.7269 607.441 21.1089C610.026 20.4909 612.612 19.8811 615.198 19.2631C617.783 18.6452 620.369 18.0353 622.955 17.4173C625.541 16.7994 628.118 16.1733 630.712 15.5716C632.525 15.1569 634.233 14.8885 636.16 14.9292C641.096 15.0268 646.698 13.5225 653.374 10.9205C653.853 10.7335 654.406 10.6685 654.919 10.5465C661.635 8.94465 668.327 7.11514 675.092 5.8548C678.06 5.30188 681.134 5.13926 684.118 4.33427C686.069 3.80575 688.021 3.53742 689.801 2.31774C691.281 1.30134 693.835 1.838 695.469 0.268683C696.071 -0.308631 697.916 -0.723322 698.925 -0.609486C702.267 -0.235451 705.348 -1.5771 708.511 -2.23572C712.146 -2.99192 715.764 -3.87822 719.366 -4.82144C721.131 -5.28492 723.001 -5.3337 724.595 -6.68348C725.375 -7.35024 727.595 -7.54539 728.994 -7.47221C731.149 -7.35837 733.132 -7.94381 734.97 -8.65123C738.906 -10.1636 738.849 -10.2612 743.028 -10.5295C743.524 -10.5621 744.045 -10.684 744.549 -10.7979C749.549 -11.985 754.761 -12.7656 759.478 -14.4894C763.413 -15.9286 767.357 -16.9044 771.365 -17.8882C772.951 -18.2785 774.675 -19.2462 776.301 -18.3843C776.537 -18.2623 777.439 -18.49 777.789 -18.7339C780.83 -20.8236 784.611 -21.0025 788.083 -21.8481C791.449 -22.6694 794.295 -24.4582 797.808 -25.0193C801.101 -25.5478 804.362 -26.5317 807.63 -27.3042C812.607 -28.4751 813.843 -28.0278 814.599 -24.7835C815.225 -22.1002 814.103 -21.222 810.249 -19.7096C802.077 -16.4978 793.352 -15.3676 786.562 -13.3836L786.538 -13.3592Z" fill="#F4EFFD"/>
<path d="M795.506 -9.85452C789.367 -6.69149 784.317 -4.18709 779.39 -1.45501C778.625 -1.03219 778.04 -0.0157906 777.056 0.480212C773.129 2.45609 769.372 5.05807 765.274 6.35093C760.794 7.76575 756.631 9.80668 752.939 12.2786C749.434 14.6285 745.694 16.3848 742.076 18.4257C740.856 19.1088 739.701 19.8568 738.026 19.9056C736.799 19.9381 734.969 20.8163 734.067 22.3368C733.888 22.6296 733.245 22.7515 732.798 22.8816C732.318 23.028 731.611 22.9385 731.351 23.215C728.383 26.3536 724.114 27.3294 720.593 29.5329C719.715 30.0777 718.52 30.2241 718.178 31.4763C718.089 31.7934 717.211 32.2894 716.845 32.2325C715.869 32.0699 715.096 32.3382 714.226 32.7935C710.454 34.7775 706.656 36.7128 702.867 38.6643C701.582 40.7133 699.233 41.3069 697.249 42.3151C695.761 43.0795 694.077 43.4617 692.476 44.0146C690.866 44.5756 689.605 46.1043 687.678 45.8766C687.369 45.8441 686.946 46.4295 686.532 46.6653C684.686 47.7143 682.905 49.0722 680.945 49.6251C679.945 49.9097 678.937 50.1943 678.035 50.6577C666.293 56.6748 654.56 62.7082 642.843 68.7822C641.826 69.3107 640.786 69.6847 640.029 70.88C639.436 71.807 637.606 72.7908 636.533 72.7095C634.809 72.5794 633.736 73.547 632.459 74.1487C630.101 75.2546 627.833 76.58 625.475 77.6858C624.068 78.3444 622.824 79.6861 621.051 79.1982C620.88 79.1494 620.441 79.3771 620.344 79.556C619.36 81.4099 617.425 81.2798 615.815 81.9303C614.652 82.4019 613.546 82.9873 612.603 84.142C611.684 85.2559 609.757 86.3536 608.383 86.3699C606.545 86.3943 605.326 87.3213 603.959 88.0124C595.861 92.1024 587.787 96.2412 579.761 100.461C575.964 102.462 572.703 105.364 568.654 106.966C567.694 107.348 566.906 108.275 565.678 107.926C565.426 107.852 564.743 108.324 564.548 108.666C563.856 109.893 562.669 110.17 561.466 110.747C556.018 113.365 550.351 115.764 545.407 119.13C541.561 121.749 537.422 123.603 533.446 125.847C532.12 126.595 530.486 126.782 529.055 127.375C527.665 127.953 526.339 128.701 525.022 129.441C524.241 129.88 523.323 130.075 522.851 131.091C522.599 131.636 521.493 132.327 520.891 132.295C518.858 132.189 517.362 133.409 515.728 134.23C511.061 136.572 506.45 139.027 501.775 141.361C500.628 141.938 499.588 143.044 498.075 142.621C497.872 142.565 497.368 143.207 496.994 143.508C496.595 143.833 496.189 144.394 495.79 144.427C492.156 144.752 489.35 147.077 486.252 148.614C478.739 152.33 471.372 156.355 463.835 160.022C461.729 161.047 460.314 162.795 458.273 163.795C456.297 164.755 454.386 165.852 452.394 166.787C450.988 167.446 449.743 168.633 447.955 168.332C447.467 168.251 446.467 168.779 446.19 169.235C445.141 170.983 443.19 171.365 441.645 172.341C439.758 173.536 437.4 173.983 435.969 175.992C435.587 176.537 434.286 176.528 433.465 176.894C432.034 177.537 430.619 178.22 429.253 178.984C428.594 179.35 428.131 180.041 427.472 180.423C422.447 183.318 417.438 186.261 412.34 189.018C407.144 191.831 401.843 194.45 396.59 197.157C391.337 199.865 386.117 202.646 380.807 205.232C378.815 206.199 377.067 208.061 374.571 207.687C373.164 209.411 371.318 209.752 369.277 209.679C368.985 209.671 368.602 210.338 368.236 210.663C367.082 211.688 366.496 213.664 364.293 212.981C364.212 212.956 364.057 213.111 363.927 213.151C362.602 213.574 362.504 215.469 360.496 215.396C359.252 215.347 357.796 216.388 356.471 217.005C355.105 217.648 353.714 218.29 352.446 219.095C351.137 219.933 349.291 220.03 348.551 221.778C348.429 222.063 347.03 221.827 346.453 222.185C343.518 224.031 339.85 224.673 337.484 227.511C336.94 228.161 335.834 228.69 334.964 228.812C331.833 229.251 329.589 231.016 327.044 232.764C323.694 235.065 319.945 237.22 315.742 237.667C314.847 237.764 314.4 237.707 313.888 238.578C313.554 239.147 312.652 239.521 311.952 239.887C304.138 243.928 296.316 247.945 288.494 251.978C286.364 253.075 283.851 253.059 281.859 254.572C281.038 255.198 279.712 255.214 279.411 256.474C279.371 256.653 279.029 256.913 278.826 256.93C275.687 257.263 273.817 260.044 270.996 260.971C270.394 261.166 269.76 261.247 269.15 261.426C268.532 261.613 267.735 261.694 267.337 262.093C263.978 265.402 259.368 266.589 255.481 268.98C254.156 269.793 252.351 270.005 251.676 271.712C251.57 271.964 250.952 272.265 250.619 272.265C247.594 272.2 245.504 274.517 242.886 275.444C241.536 275.924 240.487 277.347 238.821 276.875C238.609 276.818 238.154 277.184 237.885 277.42C237.406 277.827 237.056 278.453 236.519 278.705C235.031 279.404 233.145 279.632 232.047 280.64C230.681 281.884 229.096 282.478 227.591 283.291C226.729 283.754 225.615 283.722 224.664 284.071C223.77 284.397 222.948 284.925 222.087 285.364C220.867 285.99 219.688 286.828 218.411 287.194C217.086 287.568 216.696 289.162 214.988 289.097C213.679 289.048 213.037 290.666 211.955 291.365C211.418 291.715 210.752 291.902 210.126 292.081C209.646 292.219 209.052 292.081 208.662 292.316C207.784 292.853 206.792 293.105 206.052 294.081C205.54 294.748 204.035 294.78 203.019 295.203C202.011 295.626 201.059 296.195 200.075 296.699C199.092 297.203 197.929 297.529 197.173 298.236C193.847 301.35 189.521 302.724 185.659 304.895C184.667 305.456 183.691 306.432 182.333 305.944C182.089 305.855 181.504 306.14 181.268 306.4C178.203 309.636 173.763 310.604 170.161 312.929C167.591 314.588 165.185 316.466 162.363 317.767C159.623 319.036 156.72 320.206 154.362 321.987C152.427 323.459 150.5 324.882 148.296 325.711C146.133 326.524 145.141 329.419 142.328 328.858C140.254 329.931 138.197 331.053 136.091 332.054C134.31 332.891 132.741 334.225 130.562 334.176C129.773 334.16 128.578 334.802 128.058 335.461C126.383 337.567 124.13 338.372 121.666 339.014C121.081 339.168 120.666 339.973 120.073 340.299C118.268 341.299 116.463 342.323 114.576 343.128C108.933 345.527 104.144 349.365 98.7365 352.162C97.7364 352.674 97.0208 353.992 96.0451 354.252C90.0524 355.821 85.19 359.895 79.5063 361.928C71.123 364.936 63.6586 369.717 55.6982 373.523C54.6655 374.019 53.1857 373.775 52.8197 374.254C51.6895 375.734 49.6567 376.019 48.681 377.198C46.9165 379.32 44.347 379.824 42.2573 381.207C40.7287 382.215 38.6634 382.475 37.7283 384.329C37.59 384.597 37.0208 384.858 36.6631 384.882C33.7602 385.093 32.1828 387.809 29.5727 388.557C25.7266 392.102 20.6853 393.623 16.2863 396.233C15.6358 396.615 15.1317 397.217 14.5463 397.705C14.2535 397.949 13.9364 398.323 13.6112 398.38C8.83005 399.193 5.0897 402.396 0.747647 404.193C-0.691573 404.787 -2.22023 405.12 -3.66758 405.698C-5.12306 406.283 -6.3834 407.34 -8.11534 407.202C-8.652 407.161 -9.39194 407.698 -9.9286 408.105C-12.8477 410.292 -16.1164 409.796 -17.5882 407.064C-18.1167 406.08 -17.4906 405.673 -16.9946 404.95C-16.027 403.543 -14.9537 402.405 -13.2949 401.648C-12.0102 401.055 -10.4653 400.664 -9.84728 399.128C-9.74158 398.868 -9.148 398.607 -8.7821 398.575C-6.18825 398.323 -4.11481 396.387 -1.77302 395.924C0.0239666 395.566 1.41439 394.704 2.99998 394.119C4.33349 393.623 5.38241 392.452 7.08996 392.672C7.66727 392.745 8.51291 391.354 9.37482 390.866C11.3995 389.712 13.4648 388.59 15.6033 387.655C22.092 384.809 27.5643 380.206 34.0204 377.336C37.8665 373.799 43.103 372.522 47.2661 369.612C52.2993 366.091 57.9099 363.708 63.1219 360.61C64.1953 359.976 65.0978 359.545 66.2443 359.35C66.9924 359.228 67.7811 359.098 68.456 358.765C71.0498 357.496 73.5624 356.065 76.1806 354.853C77.5792 354.203 78.7989 352.788 80.6121 353.317C80.8642 353.39 81.474 353.056 81.6692 352.772C83.3198 350.454 86.1332 349.902 88.4099 348.552C89.2799 348.031 90.1663 347.633 91.3534 347.552C92.6382 347.462 94.2725 346.56 95.167 345.568C95.8418 344.82 96.5736 344.429 97.3217 343.925C100.428 341.835 104.477 341.242 106.982 338.176C109.315 338.534 111.218 337.038 112.787 335.859C118.821 331.322 125.895 328.728 132.4 325.101C133.969 324.223 135.855 323.922 137.53 323.191C139.287 322.418 140.986 321.491 142.661 320.556C143.556 320.06 144.832 319.914 145.076 318.653C145.092 318.564 145.231 318.434 145.336 318.393C146.385 318.044 147.548 317.865 148.467 317.312C149.296 316.816 149.768 315.799 150.557 315.19C151.492 314.466 152.573 313.889 153.63 313.319C154.655 312.775 155.647 312.002 156.899 312.368C157.192 310.961 158.639 310.847 159.631 310.238C160.566 309.668 161.574 309.213 162.558 308.709C163.656 308.14 164.762 307.579 165.859 307.01C166.957 306.44 168.112 305.952 169.144 305.294C170.567 304.383 171.86 303.269 173.299 302.399C174.82 301.48 176.43 300.651 178.056 299.944C180.105 299.049 182.228 298.342 184.301 297.496C185.155 297.146 185.732 296.537 186.35 295.78C187.171 294.772 187.993 293.056 190.058 293.691C190.464 293.813 191.391 293.243 191.839 292.788C195.359 289.219 200.336 288.121 204.426 285.527C207.32 285.34 209.288 283.527 211.589 281.974C214.972 279.697 218.712 277.567 222.55 276.355C226.624 275.07 230.096 272.818 233.909 271.159C234.983 270.696 235.91 269.736 237.259 270.2C237.568 270.305 238.325 269.842 238.682 269.484C241.17 266.98 244.228 265.752 247.602 264.809C249.383 264.313 251.001 262.979 252.595 261.711C254.993 259.8 258.108 258.694 260.921 257.247C262.718 257.759 263.076 256.116 263.442 255.303C263.938 254.214 264.653 253.702 265.637 253.173C266.898 252.498 268.255 252.059 269.134 250.669C269.581 249.961 271.069 249.311 271.963 249.351C273.167 249.4 273.386 248.977 274.053 248.189C274.842 247.262 276.427 247.782 277.663 247.075C278.98 246.327 280.257 244.944 282.062 245.522C282.225 245.57 282.631 245.343 282.77 245.156C284.64 242.659 288.03 243.139 290.242 241.326C298.373 238.854 305.317 233.837 313.018 230.471C316.197 229.08 319.758 228.365 322.515 226.259C328.304 221.844 335.11 219.355 341.379 215.859C342.705 215.119 343.989 213.786 345.803 214.314C346.055 214.387 346.664 214.054 346.86 213.769C348.339 211.671 350.47 210.988 352.877 210.655C353.462 210.574 354.365 210.078 354.527 209.647C354.966 208.419 356.113 208.232 357.024 207.785C358.129 207.248 359.935 207.191 360.382 206.459C361.341 204.882 362.61 205.443 363.748 205.053C364.447 204.817 365.057 204.215 365.675 203.744C365.968 203.516 366.187 202.955 366.423 202.947C369.074 202.825 370.456 200.32 372.782 199.629C373.278 199.483 373.758 199.206 374.262 199.092C378.051 198.231 381.943 196.496 385.938 193.889C388.394 194.409 389.361 191.278 391.801 191.384C392.687 191.425 393.964 190.652 394.679 189.929C397.81 186.749 402.192 185.725 405.803 183.416C406.559 182.936 407.648 183.562 408.266 182.277C408.502 181.789 410.226 181.952 411.08 181.48C412.316 180.789 413.893 180.618 414.674 179.057C414.991 178.423 416.267 178.138 417.064 177.634C418.154 176.935 419.479 176.699 420.244 175.349C420.658 174.609 422.114 173.845 423.024 173.837C426.773 173.813 428.806 171.048 431.286 169.105C432.034 168.519 432.538 168.072 433.53 167.861C434.912 167.56 436.758 167.137 437.473 166.21C438.734 164.551 440.506 164.055 442.1 163.177C444.865 161.648 447.759 160.347 450.508 158.786C453.646 157.014 457.029 155.761 459.891 153.338C461.428 152.037 463.534 150.476 466.063 150.744C466.339 150.777 466.754 149.687 467.258 149.419C471.267 147.289 475.284 145.183 479.365 143.207C480.309 142.752 481.959 143.459 482.301 142.028C482.667 140.507 484.716 142.069 484.83 140.418C484.846 140.174 485.7 139.759 486.196 139.662C491.611 138.556 495.929 135.011 500.889 132.897C502.076 132.392 503.125 131.205 504.58 131.799C506.881 129.132 511.362 129.872 513.24 126.53C515.492 125.765 517.216 123.627 519.875 123.855C520.306 123.895 520.867 123.22 521.33 123.212C522.916 123.188 522.729 120.854 524.778 121.058C525.957 121.171 527.453 119.976 528.787 119.334C530.023 118.732 531.234 118.082 532.454 117.455C533.795 116.764 535.145 116.073 536.487 115.382C537.829 114.691 539.219 114.073 540.512 113.292C543.13 111.707 545.382 109.576 548.31 108.462C548.627 108.34 549.066 107.934 549.074 107.682C549.172 105.568 551.017 105.763 552.196 105.763C553.188 105.763 553.953 105.6 554.807 105.153C557.116 103.933 559.417 102.681 561.783 101.591C563.19 100.941 564.385 99.6644 566.223 100.022C566.792 100.136 567.857 99.4936 568.361 98.9407C570.711 96.3713 574.053 95.4524 576.931 93.7693C578.232 93.005 579.598 92.3463 580.964 91.6877C581.997 91.1836 582.656 89.9558 584.022 90.1021C588.315 86.2235 593.852 84.4672 598.804 81.7189C603.732 78.9949 608.789 76.4905 613.831 73.9698C615.091 73.3437 616.221 72.0997 617.904 72.6119C618.222 72.7095 619.124 72.2298 619.279 71.8801C619.71 70.9125 620.1 70.3189 621.328 70.693C621.555 70.758 622.157 70.2376 622.442 69.8961C623.247 68.9367 624.182 68.5138 625.458 68.3675C626.442 68.2536 627.662 67.8633 628.361 67.2128C630.223 65.4809 632.004 63.8953 634.777 63.9197C635.118 63.9197 635.476 62.8057 635.98 62.5943C637.932 61.7731 639.542 60.1956 641.859 60.1062C642.81 60.0737 643.794 59.2199 644.794 58.8296C646.518 58.1628 647.762 56.7561 649.665 56.2113C651.584 55.6584 653.348 54.4144 655.186 53.463L660.683 50.6334C662.512 49.6901 664.35 48.7469 666.179 47.8037C668.009 46.8605 669.846 45.9173 671.676 44.974L677.173 42.1444C679.002 41.2012 680.832 40.2417 682.677 39.3147C683.97 38.6643 685.223 38.1764 686.727 37.9406C690.589 37.347 694.516 35.1435 698.964 31.7446C699.281 31.5007 699.688 31.3625 700.062 31.1673C704.827 28.7117 709.502 26.0447 714.397 23.9062C716.544 22.9629 718.886 22.3856 720.975 21.2066C722.341 20.4341 723.781 19.9056 724.821 18.507C725.683 17.3362 727.814 17.4907 728.643 15.775C728.944 15.1489 730.261 14.4902 731.074 14.4577C733.782 14.352 735.79 12.6445 738.059 11.5793C740.669 10.3596 743.23 9.00983 745.759 7.6194C747.003 6.93638 748.434 6.62739 749.288 5.13125C749.703 4.39131 751.37 3.89531 752.484 3.77334C754.191 3.58633 755.565 2.74881 756.793 1.82186C759.42 -0.162151 759.355 -0.243462 762.518 -1.08097C762.9 -1.17855 763.266 -1.36557 763.623 -1.55258C767.169 -3.37397 770.998 -4.83758 774.169 -7.13057C776.812 -9.0414 779.609 -10.5213 782.439 -12.0093C783.561 -12.6029 784.626 -13.7575 786.139 -13.1639C786.358 -13.0826 786.992 -13.4241 787.196 -13.7087C788.96 -16.1155 791.855 -16.8067 794.31 -18.0995C796.693 -19.3517 798.392 -21.4415 800.962 -22.4579C803.369 -23.4173 805.621 -24.7996 807.946 -25.9949C811.475 -27.8 812.565 -27.548 814.077 -24.572C815.33 -22.1163 814.712 -21.1325 812.142 -19.1566C806.702 -14.9772 800.246 -12.6842 795.538 -9.85452H795.506Z" fill="#F4EFFD"/>
<path d="M810.105 -4.13851C807.991 1.06545 806.186 5.28553 804.633 9.58692C804.389 10.2618 804.681 11.2375 804.332 12.0669C802.941 15.3682 802.112 19.0028 800.144 21.9219C797.989 25.1094 796.493 28.5651 795.607 32.094C794.769 35.436 793.371 38.4933 792.249 41.6807C791.867 42.754 791.574 43.8355 790.444 44.7055C789.614 45.3397 788.939 46.8521 789.346 48.332C789.427 48.6166 789.053 49.0232 788.834 49.3403C788.598 49.6818 788.045 49.9664 788.053 50.2916C788.134 53.9019 785.833 56.6909 784.882 59.9433C784.646 60.7565 783.914 61.4476 784.524 62.464C784.679 62.7242 784.41 63.4967 784.109 63.643C783.321 64.0171 782.963 64.5862 782.67 65.3262C781.402 68.5543 780.076 71.758 778.775 74.9698C779.288 77.0026 778.052 78.5719 777.361 80.2469C776.84 81.5072 775.929 82.6049 775.198 83.7758C774.458 84.9549 774.628 86.6218 773.132 87.4267C772.897 87.5568 772.994 88.1667 772.872 88.5326C772.303 90.1588 771.994 91.9721 771.01 93.3218C770.506 94.013 770.002 94.7123 769.693 95.4766C765.627 105.413 761.594 115.357 757.585 125.31C757.236 126.172 756.772 126.944 757.057 128.131C757.285 129.058 756.675 130.636 755.87 131.116C754.577 131.888 754.496 133.075 754.016 134.116C753.13 136.043 752.463 138.076 751.568 139.995C751.04 141.141 751.089 142.67 749.528 143.231C749.373 143.288 749.227 143.654 749.284 143.825C749.869 145.573 748.43 146.451 747.755 147.695C747.267 148.59 746.901 149.541 747.023 150.793C747.145 152.013 746.551 153.712 745.608 154.411C744.348 155.338 744.128 156.582 743.649 157.729C740.811 164.543 738.014 171.373 735.314 178.236C734.038 181.48 733.753 185.082 732.021 188.188C731.606 188.928 731.696 189.953 730.606 190.319C730.387 190.392 730.224 191.059 730.33 191.384C730.688 192.563 730.053 193.344 729.606 194.336C727.598 198.824 725.297 203.28 724.158 208.028C723.272 211.72 721.654 215.046 720.426 218.55C720.019 219.721 719.003 220.656 718.418 221.778C717.848 222.86 717.434 224.031 717.019 225.193C716.775 225.885 716.271 226.47 716.637 227.397C716.84 227.893 716.539 228.909 716.1 229.194C714.612 230.137 714.409 231.706 713.823 233.081C712.173 236.992 710.644 240.96 708.985 244.871C708.579 245.83 708.611 247.099 707.27 247.57C707.083 247.635 707.18 248.318 707.132 248.709C707.083 249.123 707.172 249.709 706.92 249.928C704.603 251.961 704.253 254.937 703.139 257.523C700.448 263.792 698.073 270.191 695.341 276.436C694.577 278.184 694.788 280.071 694.048 281.77C693.333 283.405 692.747 285.104 691.999 286.73C691.471 287.885 691.422 289.308 689.967 289.991C689.568 290.178 689.235 291.032 689.357 291.487C689.82 293.194 688.722 294.422 688.316 295.861C687.82 297.618 686.486 299.09 686.869 301.171C686.974 301.732 686.064 302.366 685.746 303.033C685.185 304.18 684.673 305.351 684.242 306.554C684.039 307.131 684.185 307.831 683.99 308.416C682.47 312.888 680.998 317.377 679.331 321.792C677.64 326.288 675.737 330.712 673.932 335.168C672.127 339.624 670.395 344.112 668.468 348.511C667.744 350.162 667.793 352.292 665.801 353.284C665.996 355.154 664.947 356.309 663.483 357.276C663.272 357.415 663.467 358.057 663.435 358.463C663.329 359.732 664.28 361.366 662.272 362.001C662.199 362.025 662.199 362.204 662.142 362.301C661.507 363.253 662.735 364.586 661.288 365.529C660.385 366.115 660.085 367.546 659.588 368.627C659.076 369.741 658.548 370.872 658.222 372.051C657.881 373.27 656.661 374.254 657.352 375.815C657.466 376.067 656.328 376.604 656.173 377.133C655.393 379.848 653.279 382.109 653.571 385.215C653.636 385.931 653.23 386.841 652.709 387.354C650.823 389.207 650.473 391.525 649.896 393.98C649.14 397.209 648.001 400.542 645.383 402.941C644.822 403.453 644.481 403.64 644.717 404.486C644.871 405.039 644.497 405.746 644.261 406.34C641.586 412.975 638.886 419.602 636.203 426.237C635.471 428.042 633.707 429.286 633.357 431.303C633.211 432.132 632.3 432.807 632.959 433.807C633.048 433.945 632.991 434.295 632.869 434.409C630.91 436.198 631.52 439.019 630.186 441.052C629.902 441.483 629.511 441.857 629.21 442.28C628.901 442.711 628.414 443.166 628.397 443.638C628.324 447.557 625.925 450.655 624.86 454.224C624.494 455.436 623.388 456.477 624.071 457.973C624.177 458.201 623.95 458.713 623.706 458.875C621.551 460.339 621.689 462.949 620.494 464.884C619.884 465.876 620.128 467.373 618.64 467.877C618.453 467.942 618.388 468.413 618.355 468.714C618.306 469.226 618.485 469.828 618.282 470.267C617.721 471.479 616.566 472.577 616.493 473.812C616.396 475.341 615.696 476.528 615.2 477.829C614.916 478.577 614.119 479.106 613.696 479.813C613.298 480.48 613.086 481.252 612.794 481.976C612.371 483.009 612.127 484.163 611.484 485.05C610.818 485.969 611.639 487.245 610.403 488.05C609.46 488.668 610.118 490.091 609.842 491.099C609.704 491.603 609.37 492.067 609.053 492.498C608.809 492.831 608.305 493.035 608.191 493.384C607.939 494.181 607.435 494.848 607.581 495.88C607.687 496.588 606.655 497.352 606.24 498.149C605.825 498.938 605.549 499.8 605.215 500.629C604.882 501.458 604.288 502.263 604.248 503.117C604.061 506.89 601.987 509.98 600.784 513.371C600.475 514.241 600.467 515.395 599.19 515.745C598.962 515.81 598.751 516.29 598.759 516.582C598.84 520.307 596.409 523.169 595.49 526.543C594.84 528.95 594.45 531.422 593.368 533.715C592.327 535.943 591.108 538.179 590.685 540.561C590.343 542.521 589.977 544.448 589.01 546.115C588.058 547.741 589.343 550.205 587.01 551.229C586.294 552.994 585.635 554.775 584.847 556.507C584.18 557.962 584.001 559.653 582.448 560.702C581.887 561.084 581.497 562.117 581.578 562.816C581.846 565.085 580.83 566.752 579.561 568.411C579.261 568.801 579.521 569.557 579.334 570.077C578.756 571.655 578.203 573.249 577.439 574.737C575.146 579.176 574.439 584.169 572.593 588.763C572.251 589.609 572.65 590.861 572.146 591.519C569.048 595.569 568.446 600.756 565.885 604.968C562.104 611.189 560.177 618.157 557.241 624.703C556.859 625.557 555.664 626.126 555.737 626.63C555.965 628.199 554.745 629.403 554.867 630.687C555.087 633.005 553.647 634.631 553.135 636.607C552.761 638.054 551.493 639.258 552.119 640.981C552.208 641.233 551.989 641.689 551.753 641.892C549.874 643.478 550.639 646.112 549.33 647.917C549.078 652.235 546.606 655.788 545.329 659.748C545.142 660.334 545.199 660.992 545.126 661.618C545.085 661.935 545.126 662.342 544.939 662.537C542.166 665.473 541.76 669.514 539.963 672.896C539.369 674.01 538.531 675.002 537.922 676.116C537.304 677.238 537.149 678.588 535.856 679.352C535.45 679.588 535.311 680.328 535.214 680.865C534.677 683.808 532.059 685.093 529.172 683.971C528.132 683.564 528.294 682.979 528.14 682.239C527.855 680.808 527.823 679.491 528.457 678.157C528.945 677.116 529.75 676.084 529.14 674.726C529.034 674.498 529.27 674.027 529.498 673.823C531.132 672.36 531.254 670.01 532.563 668.53C533.571 667.392 533.945 666.115 534.653 664.92C535.246 663.919 535.165 662.602 536.507 661.903C536.962 661.667 536.596 660.301 536.865 659.537C537.491 657.74 538.157 655.951 539.003 654.252C541.581 649.088 542.231 643.242 544.768 638.07C545.028 633.753 547.801 630.281 548.704 626.223C549.801 621.328 552.078 616.913 553.59 612.213C553.899 611.246 554.241 610.506 554.908 609.806C555.339 609.351 555.802 608.871 556.046 608.31C556.981 606.156 557.754 603.936 558.746 601.805C559.274 600.667 559.152 599.098 560.778 598.561C561.006 598.488 561.201 597.951 561.144 597.667C560.713 595.268 562.291 593.495 562.949 591.446C563.201 590.666 563.543 589.95 564.315 589.3C565.145 588.592 565.673 587.169 565.616 586.055C565.576 585.218 565.82 584.584 565.999 583.868C566.73 580.9 569.145 578.485 568.788 575.151C570.658 574.233 570.959 572.273 571.243 570.687C572.341 564.597 575.488 559.32 577.545 553.612C578.041 552.238 579.147 551.091 579.805 549.766C580.505 548.367 581.049 546.896 581.578 545.424C581.862 544.635 582.651 543.911 581.96 542.928C581.911 542.854 581.919 542.7 581.96 542.619C582.448 541.854 583.139 541.163 583.399 540.326C583.635 539.577 583.269 538.651 583.399 537.846C583.554 536.886 583.912 535.951 584.261 535.04C584.595 534.162 584.765 533.138 585.879 532.764C585.123 531.658 586.05 530.861 586.326 529.958C586.587 529.104 586.985 528.299 587.319 527.47C587.701 526.535 588.075 525.608 588.457 524.673C588.839 523.738 589.303 522.835 589.571 521.868C589.945 520.542 590.075 519.144 590.482 517.827C590.913 516.444 591.465 515.086 592.116 513.785C592.929 512.159 593.929 510.622 594.791 509.012C595.149 508.346 595.133 507.654 595.043 506.825C594.921 505.735 594.319 504.158 596.198 503.556C596.572 503.434 596.824 502.589 596.824 502.06C596.832 497.881 599.548 494.661 600.621 490.855C602.508 489.286 602.638 487.074 603.182 484.879C603.987 481.651 605.126 478.341 606.972 475.601C608.931 472.698 609.801 469.438 611.322 466.421C611.753 465.576 611.736 464.453 612.997 464.104C613.281 464.022 613.493 463.331 613.493 462.909C613.509 459.965 614.802 457.615 616.501 455.29C617.396 454.062 617.615 452.354 617.859 450.695C618.225 448.207 619.64 445.898 620.608 443.516C622.209 442.971 621.331 441.678 621.03 440.938C620.632 439.954 620.778 439.247 621.104 438.401C621.518 437.312 622.169 436.336 621.827 434.962C621.656 434.254 622.242 433.075 622.892 432.66C623.763 432.099 623.632 431.701 623.559 430.831C623.47 429.806 624.933 429.376 625.316 428.278C625.722 427.115 625.665 425.538 627.316 425.033C627.462 424.985 627.592 424.635 627.56 424.432C627.153 421.797 629.845 420.439 630.137 418.106C634.105 412.373 635.512 405.51 638.569 399.388C639.83 396.859 641.814 394.598 642.302 391.801C643.318 385.922 646.351 380.84 648.319 375.344C648.733 374.181 648.717 372.636 650.343 372.091C650.571 372.018 650.766 371.482 650.709 371.197C650.303 369.034 651.327 367.505 652.766 366.091C653.116 365.749 653.409 364.952 653.222 364.586C652.693 363.537 653.36 362.838 653.693 362.082C654.092 361.163 655.32 360.228 655.124 359.512C654.71 357.967 655.978 357.707 656.507 356.878C656.832 356.366 656.848 355.658 656.954 355.024C657.003 354.723 656.775 354.235 656.93 354.113C658.686 352.707 657.938 350.324 659.093 348.698C659.336 348.348 659.483 347.925 659.759 347.6C661.808 345.128 663.332 342.011 664.329 338.249C666.394 337.379 664.931 334.769 666.703 333.631C667.346 333.216 667.712 332.053 667.712 331.208C667.72 327.492 670.07 324.613 671.005 321.247C671.2 320.54 672.387 320.434 671.94 319.247C671.769 318.8 673.086 318.052 673.355 317.303C673.737 316.222 674.729 315.319 674.2 313.872C673.989 313.279 674.688 312.457 674.891 311.717C675.176 310.701 675.94 309.88 675.542 308.579C675.33 307.871 675.818 306.627 676.444 306.172C679.038 304.294 678.559 301.399 678.957 298.838C679.079 298.065 679.128 297.512 679.664 296.878C680.421 295.983 681.421 294.78 681.274 293.796C681.022 292.04 681.917 290.828 682.421 289.43C683.299 287.015 684.421 284.689 685.275 282.266C686.242 279.502 687.747 276.965 688.08 273.891C688.259 272.24 688.657 270.134 690.601 269.061C690.812 268.939 690.357 267.996 690.528 267.565C691.861 264.125 693.219 260.694 694.707 257.32C695.049 256.539 696.683 256.198 695.951 255.059C695.171 253.84 697.667 253.888 696.61 252.709C696.455 252.539 696.764 251.831 697.041 251.514C700.049 248.066 700.643 243.505 702.643 239.602C703.123 238.667 703.041 237.341 704.464 237.016C704.237 234.056 707.871 232.333 706.888 229.129C707.936 227.486 707.668 225.177 709.677 224.006C710.002 223.819 709.929 223.079 710.254 222.843C711.343 222.038 709.62 220.55 711.181 219.664C712.083 219.152 712.303 217.599 712.791 216.493C713.238 215.468 713.636 214.428 714.059 213.387C714.523 212.249 714.986 211.11 715.45 209.972C715.913 208.833 716.458 207.719 716.824 206.549C717.564 204.174 717.67 201.597 718.954 199.385C719.093 199.149 719.117 198.653 718.954 198.474C717.572 196.986 719.003 196.206 719.816 195.612C720.499 195.116 720.93 194.628 721.215 193.905C721.995 191.929 722.727 189.928 723.63 188.009C724.166 186.871 724.118 185.408 725.646 184.733C726.118 184.521 726.419 183.554 726.394 182.936C726.272 180.025 727.972 177.732 728.825 175.154C729.208 173.991 729.712 172.861 730.208 171.731C730.582 170.877 730.208 169.714 731.249 169.137C731.582 164.364 734.233 160.412 735.81 156.086C737.371 151.777 739.185 147.565 740.973 143.345C741.421 142.288 741.364 140.881 742.884 140.401C743.177 140.312 743.47 139.539 743.34 139.222C742.974 138.352 742.844 137.751 743.95 137.393C744.153 137.328 744.218 136.669 744.177 136.295C744.08 135.246 744.445 134.49 745.226 133.75C745.836 133.181 746.413 132.311 746.454 131.522C746.56 129.416 746.722 127.448 748.666 126.091C748.901 125.92 748.397 124.985 748.601 124.586C749.397 123.058 749.438 121.187 750.991 119.968C751.625 119.472 751.731 118.398 752.162 117.642C752.902 116.325 752.812 114.756 753.764 113.438C754.723 112.105 755.097 110.381 755.732 108.828C756.366 107.275 756.992 105.722 757.626 104.169C758.26 102.616 758.886 101.063 759.521 99.5097C760.155 97.9566 760.781 96.4036 761.415 94.8505C762.05 93.2974 762.676 91.7444 763.31 90.1913C763.944 88.6383 764.562 87.0771 765.204 85.5322C765.66 84.4507 766.196 83.4912 767.091 82.5805C769.376 80.255 770.595 76.7993 771.368 72.2783C771.425 71.9531 771.612 71.6523 771.734 71.3433C773.376 67.3021 774.807 63.1633 776.751 59.2685C777.604 57.5609 778.84 55.9997 779.483 54.1539C779.906 52.9505 780.548 51.8691 780.312 50.4055C780.117 49.1858 781.703 48.2263 781.101 46.6489C780.881 46.0715 781.353 44.9657 781.898 44.5429C783.703 43.1199 783.939 40.9652 784.792 39.1113C785.776 36.9809 786.638 34.7936 787.443 32.59C787.842 31.5086 788.63 30.5816 788.199 29.1424C787.988 28.435 788.809 27.2641 789.492 26.6299C790.549 25.646 790.94 24.3938 791.159 23.1579C791.639 20.499 791.525 20.4827 793.159 18.3361C793.355 18.0759 793.485 17.7669 793.607 17.466C794.834 14.4656 796.493 11.5628 797.127 8.42416C797.664 5.80592 798.591 3.41536 799.551 0.992263C799.933 0.0327838 799.876 -1.28447 801.331 -1.63411C801.543 -1.6829 801.746 -2.23582 801.697 -2.52854C801.282 -5.04108 802.819 -6.9519 803.649 -9.04975C804.454 -11.0825 804.21 -13.3511 805.299 -15.327C806.324 -17.1728 806.942 -19.2381 807.747 -21.2059C808.966 -24.19 809.901 -24.5559 812.991 -23.2956C815.536 -22.2548 815.78 -21.2709 815.349 -18.6608C814.422 -13.1153 811.495 -8.34234 810.145 -4.07347L810.105 -4.13851Z" fill="#F4EFFD"/>
<path d="M803.135 -5.08968C799.062 -0.357334 795.671 3.45619 792.492 7.43234C791.996 8.05031 791.898 9.13989 791.24 9.88796C788.613 12.8721 786.401 16.3766 783.344 18.7997C780.01 21.4586 777.213 24.5729 774.993 27.9392C772.887 31.1347 770.342 33.8668 768.009 36.8184C767.228 37.8104 766.521 38.835 765.073 39.4041C764.024 39.8188 762.78 41.1767 762.602 42.8111C762.569 43.1282 762.049 43.4372 761.715 43.6974C761.349 43.9739 760.707 44.1121 760.585 44.4455C759.268 48.1777 755.942 50.3812 753.763 53.4386C753.218 54.2029 752.242 54.6989 752.446 55.9267C752.494 56.2438 751.933 56.9594 751.592 57.0163C750.681 57.1708 750.112 57.6505 749.535 58.3335C747.055 61.2852 744.526 64.188 742.013 67.1152C741.721 69.3513 739.915 70.6035 738.59 72.1322C737.598 73.2787 736.289 74.1406 735.118 75.1326C733.939 76.1327 733.459 77.889 731.687 78.2875C731.402 78.3525 731.272 79.0111 731.004 79.3445C729.825 80.8569 728.816 82.6295 727.337 83.7272C726.58 84.2883 725.816 84.8656 725.214 85.5649C717.408 94.5986 709.627 103.649 701.87 112.723C701.195 113.512 700.439 114.17 700.26 115.471C700.121 116.488 698.918 117.935 697.95 118.195C696.397 118.618 695.853 119.813 694.983 120.749C693.373 122.472 691.933 124.367 690.323 126.083C689.364 127.107 688.827 128.693 687.079 128.815C686.908 128.823 686.624 129.164 686.616 129.359C686.51 131.319 684.77 131.815 683.631 132.888C682.81 133.669 682.078 134.539 681.721 135.864C681.371 137.149 680.135 138.727 678.948 139.174C677.354 139.767 676.671 140.979 675.752 142.02C670.353 148.199 664.987 154.412 659.701 160.681C657.197 163.649 655.53 167.259 652.652 169.95C651.969 170.593 651.652 171.666 650.448 171.739C650.204 171.755 649.789 172.39 649.765 172.756C649.659 174.065 648.741 174.683 647.919 175.577C644.228 179.61 640.26 183.521 637.316 188.067C635.023 191.604 632.161 194.547 629.608 197.791C628.754 198.873 627.404 199.548 626.396 200.532C625.42 201.483 624.567 202.564 623.713 203.63C623.209 204.264 622.485 204.727 622.493 205.784C622.493 206.354 621.81 207.313 621.273 207.468C619.46 208.012 618.647 209.557 617.557 210.801C614.435 214.347 611.41 217.981 608.28 221.518C607.515 222.388 607.052 223.706 605.564 223.795C605.361 223.811 605.182 224.535 604.987 224.925C604.775 225.34 604.645 225.966 604.312 226.12C601.271 227.543 599.775 230.495 597.693 232.837C592.652 238.496 587.854 244.383 582.772 250.018C581.349 251.596 580.829 253.596 579.447 255.116C578.113 256.588 576.885 258.165 575.536 259.621C574.576 260.654 573.974 262.101 572.291 262.386C571.836 262.467 571.177 263.247 571.12 263.743C570.909 265.63 569.364 266.581 568.413 267.939C567.25 269.598 565.38 270.728 564.949 272.972C564.835 273.574 563.705 273.973 563.135 274.558C562.143 275.574 561.192 276.631 560.306 277.737C559.883 278.274 559.753 279.03 559.338 279.575C556.126 283.73 552.955 287.909 549.621 291.967C546.231 296.097 542.669 300.09 539.189 304.147C535.701 308.205 532.286 312.319 528.7 316.279C527.35 317.767 526.578 319.971 524.252 320.41C523.715 322.386 522.252 323.264 520.447 323.841C520.187 323.922 520.13 324.638 519.935 325.053C519.341 326.329 519.634 328.281 517.43 328.354C517.349 328.354 517.284 328.549 517.186 328.622C516.202 329.411 516.877 331.135 515.105 331.696C513.999 332.037 513.153 333.42 512.25 334.387C511.315 335.387 510.372 336.396 509.592 337.51C508.787 338.664 507.217 339.331 507.29 341.12C507.299 341.413 505.981 341.64 505.632 342.136C503.818 344.706 500.883 346.413 499.972 349.69C499.761 350.438 499.013 351.259 498.305 351.642C495.752 353.008 494.516 355.284 493.004 357.642C491.02 360.74 488.621 363.83 485.133 365.546C484.393 365.912 483.978 366.001 483.889 366.936C483.832 367.546 483.19 368.164 482.726 368.709C477.555 374.75 472.359 380.784 467.171 386.825C465.756 388.468 463.561 389.24 462.439 391.208C461.975 392.021 460.829 392.452 461.081 393.672C461.113 393.842 460.927 394.184 460.756 394.265C458.154 395.542 457.658 398.607 455.568 400.315C455.121 400.681 454.6 400.949 454.145 401.299C453.673 401.657 453.023 401.982 452.828 402.462C451.242 406.462 447.705 408.958 445.282 412.308C444.461 413.455 442.973 414.203 443.07 415.935C443.087 416.195 442.664 416.659 442.371 416.756C439.704 417.634 438.826 420.358 436.915 422.009C435.931 422.854 435.598 424.456 433.947 424.554C433.736 424.562 433.492 425.034 433.346 425.335C433.093 425.847 433.037 426.514 432.679 426.904C431.662 427.985 430.117 428.782 429.565 430.026C428.882 431.563 427.735 432.588 426.751 433.783C426.19 434.466 425.198 434.783 424.515 435.393C423.873 435.962 423.36 436.694 422.799 437.352C421.986 438.296 421.303 439.41 420.336 440.133C419.327 440.881 419.636 442.426 418.124 442.906C416.961 443.272 417.059 444.914 416.4 445.882C416.075 446.362 415.571 446.736 415.091 447.094C414.725 447.362 414.156 447.427 413.912 447.76C413.359 448.508 412.603 449.045 412.351 450.151C412.18 450.907 410.879 451.403 410.164 452.094C409.456 452.785 408.854 453.59 408.204 454.347C407.553 455.103 406.675 455.761 406.301 456.623C404.659 460.437 401.447 463.014 398.959 466.161C398.316 466.966 397.861 468.145 396.487 468.137C396.243 468.137 395.845 468.568 395.739 468.877C394.381 472.723 390.901 474.967 388.697 478.171C387.128 480.456 385.794 482.879 383.859 484.92C381.981 486.904 379.924 488.855 378.598 491.181C377.509 493.092 376.403 494.97 374.817 496.401C373.264 497.8 373.565 500.694 370.89 501.076C369.516 502.678 368.182 504.321 366.743 505.874C365.531 507.175 364.702 508.858 362.783 509.492C362.084 509.72 361.311 510.671 361.116 511.419C360.506 513.818 358.864 515.241 356.986 516.583C356.538 516.9 356.498 517.754 356.116 518.225C354.945 519.681 353.79 521.16 352.465 522.461C348.513 526.364 345.895 531.284 342.317 535.463C341.658 536.236 341.561 537.634 340.813 538.171C336.227 541.44 333.641 546.595 329.502 550.181C323.412 555.482 318.842 562.085 313.443 567.964C312.744 568.728 311.353 568.972 311.231 569.517C310.841 571.192 309.191 572.078 308.808 573.436C308.125 575.875 306.093 577.127 304.832 579.022C303.913 580.396 302.206 581.274 302.149 583.218C302.141 583.502 301.75 583.909 301.441 584.047C298.994 585.137 298.718 588.064 296.75 589.536C294.839 593.902 291.05 596.829 288.277 600.529C287.871 601.074 287.667 601.773 287.35 602.391C287.188 602.7 287.074 603.131 286.805 603.285C282.967 605.505 281.008 609.53 277.95 612.49C276.942 613.466 275.739 614.238 274.714 615.206C273.682 616.181 273.007 617.523 271.446 617.93C270.958 618.06 270.535 618.767 270.234 619.296C268.575 622.158 265.526 622.735 263.144 620.751C262.282 620.036 262.672 619.483 262.81 618.678C263.087 617.125 263.566 615.767 264.697 614.572C265.575 613.645 266.762 612.807 266.689 611.246C266.673 610.986 267.087 610.563 267.388 610.417C269.543 609.384 270.576 607.01 272.429 605.863C273.852 604.985 274.714 603.781 275.861 602.757C276.828 601.903 277.259 600.529 278.837 600.196C279.365 600.082 279.544 598.578 280.097 597.87C281.398 596.211 282.74 594.561 284.22 593.056C288.724 588.495 291.627 582.673 296.099 578.095C298.018 573.737 302.068 570.964 304.515 567.061C307.475 562.345 311.402 558.474 314.695 554.076C315.37 553.173 315.988 552.506 316.907 551.978C317.509 551.636 318.143 551.27 318.598 550.766C320.346 548.823 321.956 546.766 323.745 544.863C324.705 543.847 325.193 542.204 326.982 542.115C327.225 542.098 327.624 541.61 327.689 541.301C328.193 538.716 330.421 537.35 331.852 535.431C332.397 534.699 333.015 534.065 334.015 533.617C335.096 533.138 336.162 531.82 336.536 530.658C336.82 529.78 337.3 529.202 337.747 528.519C339.609 525.681 342.894 523.893 343.837 520.372C346.017 519.957 347.066 518.038 347.96 516.493C351.383 510.557 356.498 506.036 360.702 500.776C361.718 499.507 363.238 498.645 364.401 497.474C365.621 496.238 366.727 494.881 367.808 493.523C368.386 492.799 369.434 492.279 369.142 491.067C369.117 490.978 369.19 490.823 369.264 490.758C370.036 490.116 370.979 489.595 371.557 488.815C372.077 488.107 372.077 487.058 372.516 486.27C373.037 485.326 373.744 484.473 374.443 483.635C375.11 482.83 375.671 481.822 376.907 481.765C376.598 480.415 377.81 479.862 378.428 479.017C379.013 478.212 379.712 477.496 380.355 476.74C381.086 475.894 381.81 475.04 382.542 474.195C383.274 473.349 384.079 472.552 384.713 471.633C385.591 470.381 386.258 468.975 387.169 467.747C388.128 466.446 389.185 465.21 390.323 464.071C391.746 462.632 393.316 461.339 394.779 459.941C395.381 459.364 395.641 458.64 395.869 457.77C396.178 456.615 396.194 454.818 398.259 454.745C398.666 454.729 399.243 453.932 399.447 453.387C401.073 449.102 404.968 446.565 407.48 442.979C409.928 441.906 410.903 439.678 412.286 437.572C414.319 434.482 416.709 431.417 419.571 429.14C422.604 426.725 424.718 423.627 427.369 420.96C428.117 420.212 428.532 419.065 429.906 419.065C430.215 419.065 430.687 418.415 430.857 417.984C432.012 414.967 434.183 412.926 436.736 411.024C438.086 410.023 438.956 408.332 439.834 406.698C441.151 404.242 443.42 402.283 445.282 400.12C447.055 400.014 446.697 398.437 446.697 397.599C446.689 396.477 447.103 395.786 447.746 395.013C448.575 394.013 449.575 393.2 449.787 391.688C449.893 390.915 450.925 389.874 451.722 389.63C452.787 389.305 452.812 388.858 453.072 387.947C453.381 386.874 454.974 386.841 455.771 385.833C456.617 384.752 457.17 383.117 458.975 383.077C459.138 383.077 459.398 382.743 459.447 382.532C460.065 379.719 463.211 379.092 464.407 376.783C470.489 372.043 474.514 365.4 479.864 359.984C482.068 357.756 484.881 356 486.434 353.268C489.695 347.519 494.622 343.177 498.663 338.103C499.517 337.03 500.103 335.436 501.891 335.347C502.135 335.33 502.534 334.843 502.599 334.534C503.038 332.2 504.623 330.923 506.583 329.883C507.055 329.63 507.648 328.899 507.608 328.468C507.494 327.24 508.421 326.711 509.031 326.028C509.779 325.199 511.332 324.597 511.421 323.8C511.616 322.093 512.95 322.199 513.787 321.491C514.3 321.06 514.592 320.337 514.934 319.719C515.096 319.426 515.064 318.857 515.259 318.775C517.52 317.84 517.707 315.173 519.463 313.832C519.837 313.547 520.146 313.157 520.536 312.896C523.491 310.945 526.182 308.183 528.61 304.611C530.96 304.31 530.546 301.212 532.709 300.545C533.497 300.301 534.302 299.212 534.628 298.35C536.075 294.536 539.474 292.26 541.685 289.064C542.149 288.397 543.352 288.625 543.369 287.283C543.369 286.779 544.946 286.389 545.499 285.698C546.296 284.698 547.605 284.047 547.654 282.413C547.67 281.746 548.67 281.095 549.158 280.396C549.825 279.437 550.89 278.811 551.004 277.363C551.069 276.574 552.028 275.436 552.817 275.152C556.069 273.964 556.728 270.866 558.102 268.346C558.517 267.59 558.777 267.037 559.55 266.532C560.631 265.833 562.07 264.882 562.314 263.825C562.745 261.955 564.087 260.954 565.119 259.67C566.908 257.442 568.909 255.376 570.673 253.132C572.69 250.571 575.137 248.4 576.65 245.343C577.463 243.7 578.666 241.651 580.975 241.106C581.227 241.049 581.146 239.944 581.479 239.545C584.114 236.398 586.757 233.26 589.513 230.219C590.147 229.519 591.871 229.633 591.595 228.251C591.302 226.779 593.717 227.535 593.148 226.023C593.066 225.803 593.644 225.161 594.034 224.917C598.303 222.242 600.637 217.729 604.1 214.298C604.93 213.477 605.361 212.094 606.873 212.167C607.8 209.061 612.004 208.329 612.288 204.76C613.939 203.378 614.581 200.922 616.988 200.304C617.379 200.206 617.59 199.426 617.997 199.279C619.371 198.759 618.265 196.743 620.135 196.279C621.208 196.011 622.03 194.482 622.932 193.49C623.77 192.571 624.558 191.612 625.371 190.669C626.266 189.628 627.152 188.595 628.047 187.554C628.941 186.514 629.901 185.53 630.706 184.432C632.348 182.204 633.446 179.594 635.552 177.683C635.779 177.48 635.991 176.976 635.901 176.748C635.129 174.829 636.82 174.431 637.845 174.057C638.707 173.748 639.308 173.365 639.869 172.699C641.39 170.894 642.886 169.056 644.504 167.34C645.464 166.324 645.992 164.803 647.74 164.551C648.285 164.47 648.952 163.567 649.171 162.917C650.18 159.892 652.725 158.03 654.554 155.631C655.384 154.542 656.311 153.533 657.221 152.517C657.921 151.745 657.994 150.444 659.246 150.151C661.417 145.345 665.531 142.052 668.735 138.06C671.923 134.084 675.321 130.278 678.696 126.457C679.542 125.505 680.029 124.042 681.696 123.977C682.013 123.968 682.599 123.253 682.599 122.895C682.583 121.895 682.68 121.245 683.9 121.196C684.127 121.188 684.436 120.529 684.55 120.139C684.859 119.033 685.51 118.358 686.559 117.829C687.372 117.415 688.274 116.691 688.624 115.894C689.543 113.764 690.462 111.788 692.877 110.95C693.169 110.845 693.039 109.739 693.389 109.389C694.755 108.048 695.519 106.137 697.503 105.34C698.316 105.015 698.829 103.941 699.544 103.283C700.78 102.144 701.292 100.502 702.732 99.4285C704.187 98.339 705.212 96.6721 706.431 95.2572C707.651 93.8424 708.863 92.4276 710.082 91.0128C711.302 89.5979 712.513 88.1831 713.733 86.7683C714.953 85.3535 716.164 83.9386 717.384 82.5238C718.604 81.109 719.815 79.6942 721.035 78.2793C722.255 76.8645 723.458 75.4415 724.686 74.043C725.548 73.0591 726.442 72.2297 727.662 71.5548C730.792 69.8229 733.321 66.6273 735.817 62.204C735.996 61.8869 736.297 61.6348 736.541 61.3502C739.704 57.6749 742.696 53.8289 746.103 50.3894C747.599 48.877 749.405 47.6329 750.746 45.9254C751.624 44.8114 752.665 43.8926 753.007 42.3151C753.283 41.006 755.202 40.4693 755.227 38.6805C755.235 38.0218 756.121 37.0298 756.812 36.7453C759.129 35.802 760.187 33.6554 761.74 31.9966C763.52 30.0939 765.203 28.0855 766.846 26.0609C767.651 25.0607 768.781 24.3452 768.911 22.7352C768.976 21.9465 770.229 20.9789 771.147 20.5235C772.562 19.8243 773.416 18.6452 774.115 17.4418C775.603 14.8561 775.514 14.7992 777.929 13.0672C778.221 12.8558 778.465 12.5794 778.701 12.3029C781.059 9.57084 783.799 7.06644 785.637 4.0335C787.166 1.49657 789.003 -0.690711 790.874 -2.90239C791.614 -3.78056 792.069 -5.1466 793.63 -5.08968C793.85 -5.08155 794.264 -5.58568 794.329 -5.9028C794.899 -8.60235 797.135 -10.1229 798.753 -12.0418C800.322 -13.9039 800.956 -16.2945 802.786 -18.0101C804.502 -19.612 805.9 -21.5553 807.445 -23.3442C809.795 -26.06 810.844 -26.1657 813.365 -23.9866C815.446 -22.1814 815.308 -21.1081 813.869 -18.5468C810.819 -13.1152 806.12 -9.0577 803.16 -5.06529L803.135 -5.08968Z" fill="#F4EFFD"/>
<path d="M785.84 47.4377C814.356 47.4377 837.473 24.3208 837.473 -4.19536C837.473 -32.7115 814.356 -55.8284 785.84 -55.8284C757.324 -55.8284 734.207 -32.7115 734.207 -4.19536C734.207 24.3208 757.324 47.4377 785.84 47.4377Z" fill="#F4EFFD"/>
<path d="M794.198 -57.4385C796.662 -57.0156 798.629 -56.5196 800.63 -56.1049C800.939 -56.048 801.459 -56.5603 801.849 -56.4302C803.362 -55.9017 805.159 -55.9179 806.322 -54.6495C807.582 -53.2753 809.029 -52.5191 810.688 -52.2182C811.485 -52.0963 812.184 -51.8036 812.859 -51.4539C813.534 -51.1124 814.201 -50.7465 814.867 -50.3887C815.323 -50.1611 815.827 -49.9984 815.884 -49.0959C815.925 -48.4372 816.469 -47.9656 817.461 -48.4128C817.656 -48.5023 817.73 -48.2096 817.819 -48.0469C817.909 -47.8681 817.844 -47.4208 818.031 -47.4534C819.047 -47.5753 819.706 -47.1606 820.275 -46.6565C820.852 -46.1442 821.291 -45.4856 821.982 -45.1279C822.324 -44.9408 822.356 -44.3717 823.234 -44.8433C823.462 -44.9652 823.763 -44.7376 823.69 -44.4936C823.495 -43.8594 823.625 -43.5748 823.893 -43.3309C824.479 -42.8186 825.007 -42.2413 825.552 -41.6802C826.097 -41.1273 826.609 -40.5337 827.113 -39.9402C828.56 -40.176 828.715 -39.1352 829.203 -38.4765C829.577 -37.9805 829.634 -37.2406 829.796 -36.6064C829.959 -35.964 830.984 -35.8664 830.439 -34.7687C830.349 -34.598 830.756 -34.5898 830.87 -34.4597C831.357 -33.8662 832.13 -33.3946 832.179 -32.5652C832.203 -32.1424 832.203 -31.7114 832.39 -31.3943C833.61 -29.3452 834.618 -27.1742 835.578 -24.995C836.472 -22.7834 837.285 -20.5392 837.911 -18.238C838.033 -17.8396 837.993 -17.4249 838.781 -17.1647C839.399 -16.9614 839.603 -16.2052 839.131 -15.7661C838.375 -15.0506 838.814 -14.6359 838.854 -14.1236C838.928 -13.1804 839.245 -12.2697 839.245 -11.3184C839.253 -10.7573 839.96 -10.2044 838.781 -9.59458C838.667 -9.53766 838.684 -9.35877 838.806 -9.30998C840.042 -8.80585 839.098 -8.10657 838.985 -7.49673C838.911 -7.04139 838.936 -6.6023 839.537 -6.13883C840.123 -5.68348 840.237 -4.86223 839.635 -4.42315C838.822 -3.82957 839.058 -3.30104 839.041 -2.74812C838.887 0.479961 838.489 3.69178 837.903 6.8792C837.749 7.62727 837.854 8.43226 837.903 9.23724C837.903 10.0341 837.854 10.831 837.432 11.5221C837.236 11.8474 837.537 12.3759 836.61 12.4247C836.415 12.4328 836.423 12.7499 836.594 12.9288C837.188 13.5793 836.773 13.8964 836.586 14.3355C835.634 16.3276 834.39 18.1572 834.041 20.3851C833.919 21.2633 833.594 22.0439 833.195 22.7757C832.813 23.5156 832.382 24.223 831.992 24.9711C831.74 25.4752 830.951 25.6297 830.544 26.02C830.13 26.394 829.861 26.8738 829.585 27.3454C829.422 27.63 829.04 27.7519 829.398 28.4187C829.593 28.7765 829.382 29.2156 829.016 29.183C827.804 29.0529 827.723 29.8417 827.268 30.3295C826.007 31.7281 824.787 33.1754 823.381 34.4439C823.039 34.7529 823.007 35.4847 821.982 34.9887C821.844 34.9155 821.885 35.3546 821.828 35.5416C821.763 35.7368 821.803 36.1189 821.6 36.0945C820.681 35.9807 820.128 36.2653 819.665 36.6881C819.193 37.0865 818.811 37.6151 818.315 37.981C815.868 39.6885 813.453 41.4855 810.729 42.7296C809.964 43.0548 809.729 44.2257 808.956 44.5266C808.208 44.803 807.525 45.234 806.769 45.4779C806.224 45.6324 805.842 46.3073 804.972 45.4779C804.736 45.2502 804.37 45.4129 804.313 45.7381C804.094 46.9578 803.248 46.6488 802.679 47.0147C801.971 47.4782 800.988 47.031 800.532 48.3401C800.402 48.6979 799.841 48.2263 799.516 48.2669C798.938 48.3157 798.377 48.4051 797.833 48.5922C797.572 48.6816 797.402 49.1288 797.133 49.2264C796.125 49.5679 795.101 49.9013 794.06 50.2021C793.019 50.4542 791.97 50.7388 790.905 50.8689C789.815 51.0071 788.726 51.121 787.628 51.121L785.985 51.1454L784.343 51.0966C782.156 51.064 779.952 50.9177 777.806 50.4949C777.009 50.3322 775.968 50.9909 775.496 49.4134C774.586 50.1615 774.033 49.4541 773.634 48.3482C773.577 48.1856 773.252 48.5434 773.057 48.6247C772.439 48.8849 771.536 50.1859 771.374 48.4539C771.374 48.3889 771.276 48.4377 771.236 48.4051C770.821 48.0474 770.016 49.5191 769.674 48.4051C769.471 47.7059 768.788 47.7384 768.292 47.5189C767.788 47.283 767.276 47.0635 766.723 46.9822C766.137 46.909 765.853 45.9821 764.893 46.909C764.739 47.0554 764.666 46.1284 764.422 46.0715C763.129 45.8113 762.438 44.307 760.681 44.9982C760.275 45.1608 759.876 44.9169 759.746 44.5184C759.283 43.063 758.144 43.0467 756.965 42.7865C756.201 42.6076 755.445 42.3312 754.843 41.8514C754.258 41.3392 753.819 40.6236 753.68 39.591C753.623 39.1519 753.664 38.8754 753.103 39.1112C752.729 39.2657 752.493 38.9811 752.266 38.8022C749.72 36.8263 747.362 34.6147 745.208 32.2241C744.63 31.5492 744.98 30.1994 744.094 29.7929C743.728 29.614 743.931 28.9147 742.963 29.2806C742.833 29.3294 742.671 29.2562 742.687 29.1586C742.915 27.6462 741.036 27.7113 740.776 26.5567C740.719 26.3127 740.784 26.0037 740.768 25.7517C740.744 25.4915 740.841 25.1093 740.597 25.0361C739.565 24.7353 739.028 24.0685 738.662 23.3123C738.28 22.5561 738.003 21.7593 737.483 21.0925C737.117 20.6372 737.41 19.8078 736.093 19.881C735.889 19.8891 735.8 19.6533 735.906 19.4825C736.824 17.9701 735.336 17.4904 735.328 16.3846C735.32 15.8316 734.369 15.5714 735.312 14.7258C735.434 14.6201 735.239 14.4737 735.117 14.3762C734.905 14.2135 734.466 14.1403 734.418 13.9289C734.279 13.3354 734.702 12.5222 734.157 12.1401C733.499 11.6685 733.531 11.0017 733.328 10.4163C733.214 10.0748 733.637 9.59502 733.669 9.21285C733.71 8.85508 733.539 8.52983 733.458 8.18832C733.344 7.70858 733.027 7.2451 733.182 6.73284C733.361 6.20431 732.076 6.04982 732.808 5.3668C733.369 4.85453 732.157 4.57808 731.946 4.13086C731.848 3.91132 731.954 3.64299 732.051 3.39092C732.125 3.2039 732.499 2.97623 732.442 2.82174C732.328 2.46397 732.499 2.0818 731.929 1.74029C731.523 1.50449 732.157 0.943434 732.214 0.545006C732.271 0.146578 732.173 -0.251849 732.141 -0.642146C732.108 -1.04057 732.312 -1.47966 732.027 -1.82116C731.385 -2.5855 731.238 -3.40675 731.238 -4.21173C731.271 -5.02485 731.442 -5.83797 731.385 -6.64296C731.344 -7.05765 730.978 -7.56991 732.051 -7.86263C732.247 -7.91142 732.279 -8.14723 732.165 -8.27733C731.482 -9.09044 731.466 -9.89543 731.637 -10.6679C731.807 -11.4485 732.051 -12.2047 731.994 -13.0015C731.897 -14.1399 731.515 -15.3596 731.921 -16.4492C732.116 -16.9777 732.336 -17.5144 732.499 -18.051C732.677 -18.5877 732.775 -19.1325 732.678 -19.726C732.499 -20.7018 732.434 -21.6694 732.97 -22.4175C733.474 -23.133 731.816 -24.6698 733.791 -24.8162L734.263 -26.0521C734.442 -26.4587 734.621 -26.8571 734.84 -27.2392C735.198 -27.8816 735.101 -28.7842 736.361 -28.9468C736.816 -29.0118 737.02 -29.4591 736.841 -29.8738C736.263 -31.2073 737.028 -31.8415 737.963 -32.3619C738.182 -32.4839 737.873 -32.9961 737.979 -33.2238C738.345 -33.9068 738.695 -34.6142 739.231 -35.1753C740.061 -36.0047 740.557 -37.0292 741.044 -38.0944C741.557 -39.1352 742.004 -40.2573 742.776 -41.1273C743.053 -41.4526 742.736 -42.3632 743.15 -42.5096C744.435 -42.9162 745.216 -43.7618 745.98 -44.64C746.769 -45.4938 747.493 -46.437 748.631 -46.8679C750.265 -47.5428 751.615 -48.486 752.932 -49.4943C754.249 -50.5026 755.567 -51.5271 757.055 -52.2833C757.445 -52.4703 758.283 -51.9255 758.331 -52.2508C758.486 -53.259 759.437 -53.0395 759.632 -53.7957C759.99 -55.178 761.161 -55.0072 761.917 -55.6252C762.47 -56.0968 763.43 -55.739 763.535 -57.1213C763.552 -57.3165 763.787 -57.3815 763.966 -57.3002C765.349 -56.601 765.666 -58.6012 766.837 -58.4142C768.235 -60.382 770.487 -60.0567 772.333 -60.8048C772.61 -60.9105 772.821 -61.2764 773.065 -61.4959C773.195 -61.6098 773.325 -61.8293 773.463 -61.7643C775.529 -60.7072 777.155 -62.1383 779.041 -61.9594C779.659 -61.9106 780.286 -61.5691 780.887 -61.4634C781.497 -61.3658 782.099 -61.7724 782.709 -60.9023C782.896 -60.634 783.229 -60.7885 783.481 -60.9023C784.847 -61.5447 785.888 -59.6339 785.888 -56.5359C785.888 -55.4138 785.636 -55.3406 785.376 -54.9178C784.872 -54.0965 784.4 -53.568 783.79 -53.6331C783.319 -53.6981 782.774 -53.9908 782.44 -52.8931C782.383 -52.7061 782.172 -52.7305 782.05 -52.8606C781.619 -53.3078 781.18 -53.3322 780.765 -53.2997C780.342 -53.259 779.936 -53.1777 779.521 -53.4542C778.871 -53.877 778.342 -53.6981 777.757 -53.7876C777.253 -53.877 776.879 -53.2265 776.22 -54.1047C775.992 -54.3974 775.691 -53.4867 775.382 -53.3647C774.634 -53.0883 773.878 -52.8769 773.081 -52.8118C771.878 -52.698 770.805 -52.1125 769.788 -51.4376C768.755 -50.8115 767.804 -50.0716 766.633 -49.8358C766.145 -48.8519 765.397 -48.486 764.609 -48.1852C763.836 -47.8437 763.007 -47.6079 762.446 -46.9086C761.787 -46.0385 760.966 -45.51 760.177 -44.9246L758.966 -44.0952C758.575 -43.7943 758.201 -43.4772 757.86 -43.1194C757.583 -42.8186 757.291 -42.6804 756.803 -42.7373C756.477 -42.7779 756.136 -42.8186 755.933 -42.6804C755.542 -42.412 755.176 -42.1112 754.819 -41.8103C754.469 -41.4932 754.111 -41.1842 753.713 -40.924C753.282 -40.6394 753.339 -39.7531 752.135 -40.3874C751.965 -40.4768 751.81 -40.2979 751.843 -40.119C751.989 -39.3547 751.769 -38.9725 751.436 -38.6798C751.119 -38.379 750.704 -38.1676 750.468 -37.7935C750.281 -37.5089 750.029 -37.3219 749.436 -37.3707C748.802 -37.4195 748.428 -36.9072 748.517 -36.2893C748.582 -35.8258 748.411 -35.6144 748.306 -35.3216C747.899 -34.1101 746.029 -33.9068 746.639 -32.0041C745.143 -32.305 745.061 -31.3862 745.012 -30.6706C744.866 -29.3127 744.362 -28.2394 743.728 -27.2149C743.142 -26.1659 742.402 -25.1821 742.045 -24.0274C741.866 -23.4745 741.061 -23.1818 740.744 -22.6695C740.402 -22.1329 740.215 -21.523 740.044 -20.9132C739.971 -20.5879 739.41 -20.3603 740.28 -19.7911C740.345 -19.7504 740.378 -19.6772 740.345 -19.6447C740.077 -19.3683 739.597 -19.1406 739.556 -18.7828C739.516 -18.4657 740.101 -17.986 740.191 -17.6363C740.296 -17.2135 740.207 -16.8395 740.126 -16.4654C740.036 -16.1077 740.174 -15.6686 739.239 -15.5873C740.256 -15.0425 739.621 -14.7579 739.621 -14.3838C739.621 -14.0261 739.475 -13.7008 739.418 -13.3593L739.215 -12.1966C739.15 -11.8063 738.979 -11.4322 739.044 -11.0338C739.126 -10.4809 739.467 -9.91169 739.516 -9.37503C739.548 -8.81398 739.54 -8.25293 739.369 -7.70001C739.166 -7.01699 738.776 -6.33397 738.573 -5.63469C738.483 -5.34197 738.751 -5.08177 739.142 -4.79718C739.646 -4.40688 740.8 -3.95967 739.304 -3.46367C739.012 -3.36609 739.101 -3.02458 739.304 -2.83756C739.703 -2.47166 739.922 -2.11389 740.044 -1.74799C740.174 -1.38208 740.207 -1.00805 740.191 -0.634013L740.126 0.504354C740.126 0.878389 740.183 1.25242 740.337 1.6102C739.817 2.08994 739.76 2.51276 739.882 2.91118C740.028 3.30961 740.353 3.67551 740.589 4.06581C740.923 4.64312 741.199 5.2367 741.378 5.84654C741.549 6.45638 741.532 7.10687 741.386 7.78176C741.215 8.4973 741.313 9.15593 741.484 9.7739C741.671 10.3919 741.915 10.9936 741.996 11.6522C742.036 12.0262 742.597 12.2295 741.736 12.8963C741.54 13.0508 741.711 13.2866 741.906 13.3679C743.281 13.9615 743.443 14.9616 743.248 16.2707C743.175 16.9456 743.874 17.3359 744.508 17.7018C745.468 18.2547 745.606 19.3362 746.11 20.1981C745.256 21.2307 746.541 20.8323 747.118 20.7103C747.899 20.5559 748.143 20.7022 748.346 20.9787C748.606 21.3283 748.68 21.8081 749.598 21.6698C750.07 21.5966 750.257 22.0439 750.038 22.5073C749.745 23.1172 750.046 23.044 750.534 23.0277C751.111 23.0033 750.387 24.0116 750.704 24.3206C751.03 24.654 751.883 24.6214 751.135 25.8086C751.07 25.9143 751.176 26.0119 751.298 25.9956C752.859 25.7435 752.005 27.6869 753.038 27.9064C753.201 28.6545 753.55 29.2318 753.949 29.7603C754.347 30.297 754.843 30.728 755.372 31.1345C755.884 31.5492 756.429 31.9314 756.965 32.3054C757.502 32.6876 757.99 33.1348 758.453 33.6064C758.827 34.0048 759.104 34.574 759.437 35.0619C759.787 35.5254 760.202 35.8994 760.82 35.94C761.462 35.9888 762.047 36.1027 762.584 36.2978C763.121 36.4848 763.6 36.7776 764.104 37.0378C764.592 37.3061 765.072 37.6069 765.56 37.8915C766.056 38.1599 766.568 38.3957 767.097 38.5746C767.552 38.7372 768.276 38.3875 768.186 39.7454C768.178 39.9325 768.39 39.9975 768.536 39.8837C769.642 39.0462 770.122 39.6316 770.561 40.6155C770.666 40.8594 770.984 40.9407 771.187 40.6724C771.748 39.9162 771.951 40.3878 772.26 40.4854C772.618 40.6155 772.902 41.5099 773.244 41.1359C773.976 40.339 773.951 41.4693 774.277 41.7213C774.48 41.8758 774.789 41.6969 775.057 41.6075C775.187 41.5668 775.415 41.2172 775.456 41.3229C775.7 41.9409 776.098 41.9165 776.505 41.7945C776.919 41.6563 777.334 41.4449 777.659 41.7376C777.797 41.8596 777.976 41.8677 778.106 42.0222C778.863 42.9085 779.277 43.2906 779.765 43.4614C780.261 43.6077 780.855 43.5346 782.026 43.2337C782.538 44.8518 783.416 42.6157 784.034 43.8192C784.27 44.2664 784.758 44.1769 785.075 43.8679C785.766 43.2093 786.441 43.1117 787.132 43.1361C787.815 43.1687 788.514 43.3313 789.181 43.063C789.458 42.9573 789.758 43.998 790.051 43.1118C790.157 42.7702 790.71 43.6891 791.019 43.6078C791.458 43.502 792.019 44.0062 792.328 42.9329C792.45 42.4938 792.897 42.7784 793.182 42.6483C793.564 42.4531 794.035 42.7784 794.287 41.8596C794.426 41.3636 794.922 41.2578 795.247 41.6156C796.621 43.0304 797.28 41.3473 798.028 40.5098C798.264 40.2577 798.41 40.0463 798.768 40.2089C799.272 40.4447 799.979 40.7456 800.134 40.152C800.41 39.1112 801.044 39.2901 801.565 39.0543C802.435 38.6071 803.419 38.4363 804.256 37.9159C804.728 37.6232 805.264 37.4606 805.769 37.2248C806.257 36.9646 806.712 36.6149 807.005 35.9888C807.338 35.3302 807.769 34.5577 809.037 35.4522C809.176 35.5498 809.013 34.7448 809.159 34.6553C810.306 33.8829 811.428 33.1023 812.607 32.3786C812.883 32.2241 813.997 33.1104 813.55 32.0452C813.07 30.915 814.77 32.5412 814.095 31.2646C813.997 31.0776 814.233 30.9231 814.436 30.9312C815.542 31.0044 816.217 30.4922 816.811 29.9148C817.372 29.2887 817.852 28.5895 818.567 28.1341C818.909 27.9064 818.803 27.1909 819.892 27.7763C819.771 26.9632 820.38 26.8087 820.917 26.5567C821.454 26.3127 821.933 26.0037 821.429 24.9467C822.153 24.5889 821.746 23.3123 823.308 23.605C823.56 23.6457 823.43 23.2391 823.674 23.2554C824.511 23.2961 822.909 21.8243 824.129 22.0276C824.853 22.1414 824.844 21.4259 825.121 21.06C825.381 20.7185 825.592 20.3444 825.82 19.9785L826.528 18.7507C826.772 18.3442 827.081 17.9701 827.194 17.4985C827.455 16.5472 827.089 15.36 827.78 14.6282C827.853 14.5469 827.78 14.3192 827.593 14.1973C826.04 13.1646 827.17 13.1646 827.78 13.067C828.292 12.9857 828.577 12.8475 828.674 12.571C828.967 11.823 829.154 11.0342 829.52 10.3106C829.739 9.87961 829.341 9.22911 830.561 9.12341C830.943 9.09088 830.975 8.68432 830.78 8.40786C829.918 7.12313 830.805 6.28562 830.87 5.24483C830.886 4.77322 831 4.31788 831.114 3.87066C831.203 3.52102 830.487 3.05755 831.292 2.82987C830.658 1.86226 830.658 1.01661 830.772 0.16284C830.853 -0.690934 831.17 -1.53657 831.089 -2.40661C831.016 -3.26852 831.057 -4.12229 831.016 -4.97607C831.016 -5.82984 831.032 -6.69174 830.983 -7.54552C830.967 -7.97647 830.349 -8.39116 831.545 -8.8953C831.764 -8.99287 831.707 -9.30185 831.455 -9.3669C830.764 -9.54579 830.398 -9.68402 831.244 -10.0743C831.398 -10.1475 831.179 -10.3589 830.992 -10.4565C830.463 -10.7411 830.488 -11.0501 830.862 -11.481C831.154 -11.8144 831.301 -12.2372 830.992 -12.473C830.195 -13.0991 829.463 -13.6276 830.544 -14.644C830.675 -14.7741 829.821 -14.8311 829.821 -15.0018C829.853 -15.6767 828.999 -16.1077 829.78 -17.0021C830.089 -17.368 829.707 -17.6607 829.707 -18.0022C829.707 -18.6039 828.894 -18.8885 829.064 -19.5797C829.252 -20.2871 828.69 -20.7912 828.471 -21.3767C828.251 -21.9702 827.983 -22.5476 827.723 -23.1249C827.471 -23.7103 827.202 -24.2795 826.902 -24.8405C826.601 -25.4016 826.341 -25.9789 826.007 -26.5237C825.682 -27.0685 825.381 -27.6295 825.048 -28.1743C824.706 -28.711 824.348 -29.2395 824.023 -29.7843C823.779 -30.1583 823.657 -30.5649 823.787 -31.2154C823.966 -32.0529 823.787 -32.7522 823.324 -33.3051C822.869 -33.8743 822.153 -34.3215 821.202 -34.6468C821.063 -34.6955 821.023 -34.8338 820.941 -34.9313C819.844 -36.2079 818.494 -37.2243 817.502 -38.6148C817.063 -39.2246 816.852 -40.1109 816.217 -40.55C815.811 -40.8346 815.526 -41.2655 814.664 -40.9647C813.949 -40.6964 814.184 -41.9648 813.103 -41.2981C812.713 -41.0623 812.363 -41.3306 812.371 -41.7453C812.412 -43.1357 811.387 -43.0869 810.786 -43.5829C810.094 -44.1846 809.281 -44.5831 808.46 -44.9734C808.062 -45.1685 807.834 -45.7052 807.005 -45.0709C806.598 -44.7538 806.281 -45.2823 806.167 -45.7865C805.996 -46.5671 805.468 -46.6565 804.931 -46.6159C803.785 -46.5264 803.768 -46.4207 803.102 -47.4371C803.02 -47.5591 802.907 -47.6079 802.785 -47.6566C802.207 -47.9006 801.654 -48.2258 801.069 -48.4535C800.483 -48.6812 799.89 -48.8845 799.215 -48.7462C798.109 -48.5511 797.174 -48.795 796.206 -48.9658C795.816 -49.0471 795.271 -48.6161 795.19 -49.8765C795.174 -50.0553 794.954 -50.0797 794.824 -49.9415C793.759 -48.7706 793.035 -49.6651 792.165 -49.722C791.328 -49.7951 790.474 -48.8519 789.669 -49.1609C788.905 -49.4699 788.091 -49.3479 787.303 -49.3479C786.099 -49.3886 785.847 -50.1285 785.839 -53.4542C785.839 -56.2107 786.181 -56.7961 787.335 -57.3409C788.555 -57.9507 789.799 -57.9019 790.954 -57.7881C792.108 -57.6499 793.19 -57.349 794.198 -57.3978V-57.4385Z" fill="#F4EFFD"/>
</g>
</g>
<defs>
<clipPath id="clip0_4349_162">
<rect width="768" height="768" fill="white"/>
</clipPath>
<clipPath id="clip1_4349_162">
<rect width="1200" height="746.621" fill="white" transform="translate(-360 -62)"/>
</clipPath>
</defs>
</svg>
