<svg width="48" height="48" viewBox="0 0 48 48" fill="none" xmlns="http://www.w3.org/2000/svg">
<path d="M15.1043 23.6779C15.1043 23.6779 23.083 20.3063 25.8542 19.1228C26.9118 18.648 30.5129 17.1342 30.5129 17.1342C30.5129 17.1342 32.1729 16.4736 32.0324 18.0837C31.9855 18.7443 31.6174 21.0701 31.2492 23.5816C30.6936 27.139 30.0979 31.0267 30.0979 31.0267C30.0979 31.0267 30.0042 32.1208 29.2211 32.3066C28.4379 32.4992 27.146 31.646 26.9118 31.4533C26.7243 31.3088 23.4512 29.1758 22.253 28.1367C21.9317 27.8546 21.5636 27.2835 22.2999 26.6161C23.9599 25.0541 25.9412 23.1068 27.146 21.8751C27.7016 21.304 28.2505 19.976 25.9479 21.593C22.6747 23.9188 19.4417 26.1 19.4417 26.1C19.4417 26.1 18.7054 26.5748 17.3199 26.1482C15.9343 25.7215 14.3211 25.1504 14.3211 25.1504C14.3211 25.1504 13.2167 24.4417 15.1043 23.6779Z" fill="#7D24FF"/>
</svg>
