<svg  viewBox="0 0 447 8" fill="none" xmlns="http://www.w3.org/2000/svg">
<path d="M11.0776 2.77334C14.3652 2.77334 17.0452 2.82667 19.7611 2.72C20.1899 2.72 20.6544 2.34667 21.1904 2.37334C23.2987 2.37334 25.4428 2.08 27.4797 2.48C29.6952 2.90667 31.9107 2.96 34.019 2.69334C36.0201 2.42667 37.9855 2.50667 39.9867 2.42667C40.6656 2.4 41.3088 2.32 42.0235 2.72C42.5595 3.01334 43.5243 3.04 44.239 2.53334C44.382 2.42667 44.6678 2.53334 44.8823 2.58667C45.1324 2.64 45.3825 2.85334 45.5612 2.77334C47.4909 2 49.5277 2.58667 51.4931 2.4C51.9934 2.34667 52.5294 2.58667 52.9582 2.05334C53.0654 1.92 53.5299 1.89334 53.6729 2.02667C54.066 2.34667 54.4233 2.42667 54.9236 2.4C56.9604 2.4 58.9973 2.4 61.0341 2.4C62.0347 1.73334 63.1425 2.02667 64.2145 2.02667C65.0006 2.02667 65.8225 2.26667 66.6087 2.4C67.4306 2.53334 68.2882 2.10667 69.0386 2.69334C69.1458 2.8 69.4674 2.61334 69.6818 2.58667C70.6824 2.53334 71.7544 2.32 72.6835 2.53334C73.1838 2.64 73.6483 2.74667 74.1486 2.74667C80.4379 2.74667 86.7271 2.74667 93.0521 2.74667C93.5881 2.74667 94.1241 2.82667 94.6958 2.42667C95.1604 2.13334 96.1252 2.10667 96.5897 2.42667C97.3044 2.93334 97.9476 2.72 98.6266 2.74667C99.8773 2.8 101.128 2.74667 102.379 2.77334C103.129 2.8 103.951 2.45334 104.594 3.14667C104.666 3.2 104.88 3.2 104.987 3.14667C105.809 2.48 106.595 3.04 107.417 3.14667C108.025 3.2 108.596 3.2 109.275 2.88C109.919 2.56 110.955 2.50667 111.562 2.85334C112.349 3.30667 113.063 3.14667 113.814 3.17334C118.138 3.2 122.461 3.22667 126.785 3.17334C128.822 3.17334 130.859 2.56 132.932 2.8C133.432 2.85334 133.968 2.61334 134.397 3.06667C134.504 3.17334 134.897 3.12 135.04 2.98667C135.612 2.56 136.148 2.72 136.791 2.74667C139.685 2.85334 142.615 3.09334 145.439 2.69334C147.654 2.37334 149.798 2.53334 151.978 2.42667C152.693 2.4 153.443 2.72 154.193 2.77334C154.908 2.82667 155.623 2.8 156.337 2.77334C156.766 2.77334 157.195 2.88 157.624 2.50667C157.838 2.29334 158.482 2.24 158.732 2.4C159.589 2.96 160.483 2.74667 161.34 2.74667C163.842 2.77334 166.307 2.74667 168.809 2.74667C169.416 2.74667 170.095 2.48 170.667 3.06667C170.738 3.14667 171.096 2.96 171.31 2.90667C171.56 2.85334 171.846 2.66667 172.025 2.77334C173.633 3.52 175.348 3.09334 176.992 3.12C180.994 3.2 184.996 3.09334 188.999 3.17334C190.106 3.2 191.107 2.69334 192.179 2.72C193.215 2.74667 194.287 2.69334 195.324 2.72C196.074 2.74667 196.86 2.48 197.539 3.06667C197.718 3.22667 198.254 3.22667 198.468 3.06667C199.29 2.48 200.219 2.77334 201.077 2.69334C202.149 2.58667 203.221 2.96 204.293 2.34667C204.579 2.18667 205.115 2.50667 205.544 2.53334C206.294 2.58667 207.044 2.61334 207.795 2.56C208.152 2.56 208.509 2.32 208.867 2.32C211.618 2.16 214.406 2 217.157 1.92C219.98 1.86667 222.803 1.92 225.626 1.92C228.449 1.92 231.272 1.86667 234.095 1.92C235.167 1.94667 236.311 1.49334 237.276 2.29334C238.24 1.81334 239.098 2.10667 239.956 2.64C240.063 2.72 240.384 2.48 240.599 2.42667C241.314 2.21334 241.993 1.41334 242.779 2.29334C242.779 2.32 242.922 2.29334 242.957 2.29334C243.601 2.42667 244.065 1.52 244.887 2.05334C245.423 2.4 246.245 2.24 246.96 2.26667C247.674 2.29334 248.425 2.32 249.104 2.26667C249.854 2.18667 250.64 2.61334 251.355 1.94667C251.462 1.84 251.998 2.29334 252.32 2.26667C253.963 2.10667 255.679 2.72 257.287 1.92C257.644 1.73334 258.252 1.76 258.645 1.92C260.074 2.48 261.396 2.18667 262.861 1.97334C264.791 1.68 266.828 1.57334 268.722 2.42667C269.115 2.61334 269.294 2.74667 269.722 2.42667C269.972 2.24 270.437 2.26667 270.83 2.26667C275.011 2.26667 279.228 2.26667 283.409 2.26667C284.552 2.26667 285.624 2.90667 286.803 2.66667C287.268 2.56 287.84 2.88 288.268 2.34667C288.34 2.26667 288.519 2.24 288.626 2.26667C290.019 2.88 291.413 2 292.842 2.26667C293.128 2.32 293.414 2.45334 293.736 2.50667C294.022 2.56 294.379 2.72 294.665 2.64C296.809 1.86667 299.024 2.45334 301.204 2.26667C301.955 2.21334 302.741 2.56 303.42 1.89334C303.527 1.78667 303.849 1.81334 303.991 1.89334C305.242 2.69334 306.636 2.08 307.958 2.29334C308.637 2.4 309.387 1.97334 309.995 2.61334C310.066 2.69334 310.352 2.61334 310.495 2.58667C310.781 2.50667 311.067 2.29334 311.353 2.29334C312.139 2.32 312.996 2.69334 313.675 2.48C314.533 2.21334 315.319 2.32 316.141 2.32C316.606 2.32 317.07 2.61334 317.57 2.66667C318.035 2.72 318.5 2.66667 318.928 2.66667C319.572 2.66667 320.251 2.56 320.894 2.69334C321.537 2.85334 322.037 2.16 322.752 2.61334C323.288 2.96 323.931 2.34667 324.539 2.26667C324.825 2.24 325.182 2.32 325.468 2.37334C325.718 2.42667 325.932 2.64 326.147 2.61334C326.647 2.58667 327.112 2.69334 327.648 2.4C328.005 2.21334 328.648 2.56 329.184 2.61334C329.72 2.66667 330.22 2.61334 330.756 2.61334C331.292 2.61334 331.864 2.74667 332.329 2.61334C334.401 1.94667 336.545 2.34667 338.654 2.26667C339.19 2.26667 339.833 2 340.298 2.58667C340.369 2.69334 340.691 2.69334 340.833 2.64C342.835 1.84 344.943 2.48 346.98 2.24C348.445 2.08 349.874 1.76 351.339 1.84C352.769 1.92 354.27 2.08 355.663 1.78667C356.807 1.54667 357.95 1.33334 359.058 1.49334C360.166 1.62667 361.202 0.480002 362.274 1.46667C363.382 1.46667 364.49 1.44 365.633 1.46667C366.562 1.49334 367.527 1.25334 368.456 1.81334C368.778 2.02667 369.421 2 369.814 1.81334C370.993 1.2 372.101 1.38667 373.316 1.68C373.602 1.76 373.959 1.46667 374.281 1.46667C375.246 1.44 376.246 1.38667 377.247 1.46667C380.177 1.70667 383.036 1.04 385.93 1.04C386.466 1.04 387.074 0.586668 387.538 0.693335C390.433 1.44 393.363 0.693335 396.222 1.09334C400.438 1.73334 404.655 1.28 408.872 1.41334C409.408 1.41334 409.979 1.92 410.265 1.78667C411.087 1.36 411.98 1.73334 412.659 1.38667C413.874 0.800002 415.054 1.2 416.269 1.04C417.126 0.933335 418.055 1.33334 418.877 0.666669C418.984 0.560002 419.306 0.586668 419.449 0.666669C420.735 1.28 421.986 0.373335 423.272 0.666669C425.667 -0.106665 428.132 0.426669 430.598 0.266669C430.955 0.266669 431.313 0.0800019 431.67 1.8701e-06C431.849 -0.0533315 432.063 -0.159998 432.206 -0.0799981C434.422 0.720002 436.709 0.106669 438.924 0.320002C439.675 0.400002 440.389 0.613335 441.14 0.693335C441.89 0.773335 442.64 0.586668 443.355 1.06667C443.57 1.22667 443.998 1.14667 444.32 1.06667C446.035 0.746669 447.322 1.78667 447.357 3.49334C447.357 4.10667 447 4.13334 446.643 4.37334C445.928 4.8 445.213 5.09334 444.356 5.04C443.677 5.01334 442.926 4.8 442.355 5.41334C442.247 5.52 441.961 5.49334 441.783 5.41334C440.639 4.88 439.317 5.30667 438.245 4.96C437.388 4.69334 436.637 4.74667 435.815 4.64C435.136 4.53334 434.457 4.85334 433.778 4.32C433.564 4.13334 432.885 4.61334 432.42 4.61334C431.313 4.66667 430.169 4.69334 429.061 4.61334C425.702 4.37334 422.379 5.22667 418.984 5.01334C416.59 5.76 414.089 5.09334 411.695 5.46667C408.8 5.92 405.906 5.68 403.011 5.86667C402.404 5.92 401.939 5.86667 401.403 5.70667C401.046 5.57334 400.688 5.44 400.331 5.44C398.937 5.41334 397.58 5.46667 396.186 5.41334C395.435 5.38667 394.614 5.76 393.97 5.04C393.863 4.93334 393.542 4.96 393.399 5.04C392.184 5.76 390.861 5.30667 389.611 5.41334C389.146 5.44 388.682 5.41334 388.146 5.17334C387.574 4.90667 386.681 4.93334 386.109 5.17334C385.644 5.36 385.251 5.36 384.822 5.44C383.036 5.68 381.213 4.96 379.462 5.81334C378.533 5.06667 377.425 5.30667 376.496 5.49334C372.959 6.18667 369.385 5.68 365.812 5.81334C364.954 5.84 364.097 5.52 363.203 5.46667C362.274 5.41334 361.381 5.44 360.452 5.46667C359.951 5.46667 359.38 5.22667 359.022 5.78667C359.022 5.84 358.915 5.86667 358.844 5.84C358.308 5.76 357.807 5.54667 357.271 5.57334C356.807 5.6 356.378 5.97334 355.913 6.08C355.342 6.18667 354.77 6.21334 354.198 6.21334C353.662 6.21334 353.055 6.34667 352.59 5.86667C352.161 6.48 351.518 6.16 350.982 6.21334C350.446 6.26667 349.946 6.21334 349.41 6.21334H347.623C347.016 6.21334 346.444 6.16 345.836 6.21334C345.014 6.29334 344.228 6.50667 343.442 6.58667C342.585 6.64 341.727 6.64 340.869 6.58667C339.797 6.50667 338.761 6.32 337.689 6.21334C337.26 6.16 336.867 6.32 336.438 6.53334C335.866 6.82667 335.152 7.44 334.401 6.61334C334.258 6.45334 333.722 6.50667 333.436 6.61334C331.15 7.46667 328.827 6.74667 326.504 6.98667C325.253 6.34667 324.003 6.74667 322.681 6.90667C320.751 7.17334 318.714 7.28 316.82 6.90667C314.819 6.50667 312.854 6.74667 310.852 6.58667C310.281 6.53334 309.709 6.77334 309.209 6.21334C309.101 6.08 308.673 6.13334 308.458 6.21334C306.85 6.8 305.278 6.64 303.67 6.26667C302.812 6.05334 301.847 6.29334 300.883 6.53334C299.453 6.85334 297.881 6.61334 296.38 6.61334C295.737 5.92 295.237 6.61334 294.879 6.93334C294.45 7.33334 294.022 7.41334 293.486 7.41334C292.807 7.41334 292.128 7.30667 291.449 7.76C291.091 8 290.341 7.94667 289.948 7.68C289.448 7.36 289.269 7.49334 288.804 7.73334C288.268 8 287.697 7.33334 287.018 7.36C286.303 7.38667 285.445 7.73334 284.802 7.01334C284.731 6.96 284.516 6.96 284.409 7.01334C283.051 7.76 281.729 6.66667 280.407 7.01334C276.405 6.18667 272.367 6.88 268.364 6.58667C266.721 6.48 265.041 5.92 263.433 6.26667C260.003 6.96 256.572 6.48 253.177 6.61334C252.463 6.64 251.605 6.96 250.962 6.26667C250.855 6.16 250.533 6.18667 250.39 6.26667C249.318 6.90667 248.246 6.72 247.174 6.26667C246.924 6.16 246.424 6.16 246.245 6.34667C245.78 6.82667 245.28 6.64 244.78 6.61334C244.208 6.61334 243.422 6.16 243.065 6.42667C242.314 6.96 241.885 6.37334 241.314 6.26667C240.956 6.21334 240.563 6.34667 240.206 6.42667C240.027 6.45334 239.813 6.69334 239.706 6.64C238.562 6.02667 237.419 6.90667 236.275 6.64C236.025 6.58667 235.775 6.58667 235.525 6.53334C233.738 6 231.713 5.86667 229.45 6.13334C228.521 5.25334 227.413 6.53334 226.412 5.89334C226.055 5.65334 225.34 5.70667 224.876 5.89334C222.839 6.64 220.766 6.05334 218.729 6.26667C218.301 6.32 217.979 5.73334 217.443 6.21334C217.229 6.4 216.55 5.86667 216.085 5.89334C215.406 5.92 214.692 5.6 214.048 6.16C213.762 6.4 213.155 6.21334 212.726 6.26667C212.119 6.32 211.511 6.10667 210.868 6.58667C210.546 6.85334 209.76 6.85334 209.367 6.61334C207.759 5.68 206.294 6.53334 204.829 6.85334C204.4 6.96 204.078 7.04 203.614 6.90667C202.971 6.72 202.077 6.45334 201.577 6.72C200.684 7.2 199.826 7.01334 198.968 7.04C197.468 7.09334 195.967 7.01334 194.43 7.06667C192.715 7.14667 191 6.90667 189.249 7.36C188.32 7.6 187.069 7.84 186.068 7.06667C185.961 6.98667 185.532 7.41334 185.282 7.41334C183.102 7.44 180.958 7.46667 178.779 7.41334C178.278 7.41334 177.742 6.64 177.278 7.25334C176.777 7.89334 176.277 6.64 175.848 7.41334C175.777 7.52 175.348 7.52 175.098 7.41334C172.561 6.58667 169.952 7.22667 167.379 7.01334C166.772 6.96 166.057 7.28 165.593 6.61334C164.02 7.33334 162.305 5.84 160.769 7.01334C159.661 6.82667 158.446 7.44 157.374 6.66667C157.195 6.53334 156.802 6.72 156.623 6.61334C155.944 6.24 155.516 7.41334 154.694 6.8C154.229 6.45334 153.336 6.66667 152.621 6.64C151.978 6.64 151.299 6.64 150.656 6.64H148.476C147.761 6.64 147.047 6.58667 146.296 6.64C144.831 6.74667 143.402 7.22667 141.937 7.04C141.794 7.04 141.508 7.12 141.436 7.22667C140.936 8.24 140.186 7.68 139.685 7.38667C139.256 7.14667 138.899 7.01334 138.435 7.04C137.184 7.04 135.933 7.09334 134.682 7.04C133.932 7.01334 133.146 7.33334 132.467 6.69334C132.253 6.50667 131.645 6.53334 131.323 6.69334C129.751 7.36 128.143 6.96 126.571 7.06667C125.856 7.12 125.141 7.06667 124.391 7.06667C123.855 7.06667 123.283 7.49334 122.747 7.06667C120.067 7.86667 117.351 7.33334 114.636 7.44C111.955 7.54667 109.275 7.49334 106.56 7.44C105.881 7.44 105.13 7.76 104.523 7.06667C104.416 6.93334 103.915 6.96 103.772 7.06667C103.379 7.44 103.093 7.62667 102.629 7.12C102.557 7.04 102.164 7.12 101.986 7.22667C101.45 7.49334 100.949 7.46667 100.378 7.22667C99.9488 7.04 99.3413 6.90667 98.9125 7.06667C97.7332 7.44 96.6255 7.76 95.482 7.06667C95.339 6.98667 94.946 7.44 94.6958 7.41334C93.6953 7.33334 92.659 7.68 91.6584 7.14667C91.2653 6.93334 90.6579 7.09334 90.1218 7.04C89.2285 6.93334 88.4066 7.30667 87.4775 7.09334C86.5484 6.88 85.5121 7.04 84.5473 7.04H72.755C71.7544 7.04 70.7896 7.04 69.789 7.04C69.1101 7.04 68.4669 6.96 67.7879 6.69334C66.0012 6.02667 63.8571 6.10667 61.2485 6.64C61.0699 6.66667 60.8555 6.64 60.6768 6.64C58.1039 6.64 55.5668 6.77334 52.9939 6.58667C51.8862 6.50667 50.7427 6.21334 49.5992 6.26667C48.8488 6.29333 48.1341 6.18667 47.3836 6.61334C46.7762 6.96 45.8828 6.34667 45.1681 6.98667C44.918 7.22667 44.2033 7.2 43.846 7.01334C42.6667 6.4 41.4518 6.72 40.2725 6.66667C38.9146 6.61334 37.521 6.61334 36.1273 6.66667C35.4484 6.66667 34.7694 6.48 34.0905 6.98667C33.7689 7.25333 32.947 7.06667 32.4467 6.85334C31.6963 6.50667 30.9101 6.58667 30.1955 6.72C28.6589 7.01334 28.6589 7.09334 27.1223 6.72C26.9436 6.66667 26.7292 6.66667 26.5506 6.66667C24.6566 6.66667 22.6913 6.42667 20.8688 6.74667C19.3322 7.01334 17.8314 7.04 16.2948 7.04C15.6873 7.04 14.9727 7.33334 14.4724 6.66667C14.4009 6.56 14.0436 6.58667 13.9006 6.66667C12.6142 7.38667 11.2563 7.01334 9.93413 7.01334C8.64769 7.01334 7.46846 7.62667 6.1463 7.46667C4.93133 7.33334 3.6449 7.46667 2.3942 7.44C0.393077 7.49334 0 7.09334 0 5.28C0 3.78667 0.464546 3.44 2.00112 3.12C5.2172 2.45334 8.46902 2.96 11.0776 2.74667V2.77334Z" fill="white"/>
</svg>
